<svg fill="none" height="200" viewBox="0 0 200 200" width="200" xmlns="http://www.w3.org/2000/svg" xmlns:xlink="http://www.w3.org/1999/xlink"><linearGradient id="a" gradientUnits="userSpaceOnUse" x1="20.5" x2="100" y1="16" y2="200"><stop offset="0" stop-color="#acaaff"/><stop offset="1" stop-color="#c0e8ff"/></linearGradient><path clip-rule="evenodd" d="m0 158.405c46.157-14.588 56.186-4.56 41.597 41.595 26.956-46.155 89.85-46.155 116.806 0-14.579-46.155-4.549-56.183 41.597-41.595-46.146-26.955-46.146-89.845 0-116.8-46.146 14.578-56.176 4.55-41.597-41.605-26.956 46.155-89.85 46.155-116.805 0 14.587 46.155 4.559 56.183-41.598 41.606 46.157 26.954 46.157 89.844 0 116.799zm100-21.405c20.435 0 37-16.565 37-37 0-20.434-16.565-37-37-37-20.434 0-37 16.566-37 37 0 20.435 16.566 37 37 37z" fill="url(#a)" fill-rule="evenodd"/></svg>