<svg height="302.04337" viewBox="0 0 242.30655 302.04337" width="242.30655" xmlns="http://www.w3.org/2000/svg"><g transform="translate(-17.643594 -56.974753)"><path d="m143.04 358.3424c-2.17896-.68303-2.43762-.7009-5.69971-.39374-3.6387.34262-8.07137-.81065-9.8141-2.55338-1.10007-1.10006-1.10832-3.74348-.0199-6.39062.58594-1.42512.69935-2.06392.47241-2.66083-.4595-1.20857-.35428-4.37252.18863-5.67187.268-.64142 1.00819-1.74281 1.64487-2.44754s1.10141-1.33367 1.03273-1.39764c-.0687-.064-1.13288.14996-2.36488.4754-3.42199.90392-8.10854 1.34787-12.09079 1.14535-1.97406-.10039-5.24521-.23945-7.26921-.30903-4.45097-.15299-5.82614-.5487-7.24463-2.08466-1.77774-1.92495-2.462034-3.67035-2.462034-6.27978 0-2.42121.469988-3.72159 2.702734-7.47805 2.32423-3.91036 1.13698-10.26861-3.01022-16.12101-2.302074-3.24862-3.305201-5.57604-3.902735-9.055-.173236-1.00861-.582075-1.60331-1.92829-2.80492-1.024651-.91459-1.860212-1.9848-2.08764-2.67391-.608904-1.845-.23772-4.46978 1.035327-7.32117 1.977199-4.42856 2.317272-6.51844 1.863524-11.4521-.213862-2.32534-.516225-4.38366-.671918-4.57404-.155694-.19037-1.041563-.75345-1.968598-1.25129-4.693767-2.52062-10.386766-6.78424-14.841279-11.11497l-1.955761-1.90142-.16707 3.94691c-.122447 2.89274-.478965 5.34398-1.334832 9.17766-1.918583 8.59389-1.895104 11.66659.138527 18.12925 1.823149 5.79378 1.860922 8.54021.194053 14.10918-.42523 1.42069-.934827 3.62513-1.132438 4.89877-.757308 4.88096.905442 11.6658 3.923107 16.00822 2.782523 4.00404 3.560928 6.15342 3.107485 8.58059-.14387.77009-.148186 1.90296-.0096 2.51747.550356 2.44021-.917316 4.72392-3.577714 5.56697-.764503.24226-2.974005.47672-4.910005.52102-2.505515.0573-3.888904.24188-4.8.64033-1.981817.8667-12.475245 1.04542-15.081894.25687-1.095675-.33146-3.077935-.59149-4.758107-.62417-6.328346-.12308-8.420506-2.60428-6.396353-7.58575.694971-1.71033.754558-2.12652.440644-3.07769-.817901-2.47827.251108-5.49633 2.753337-7.7733 1.475987-1.34312 2.990201-3.73779 3.561597-5.63252.253108-.83929.462878-2.82199.466156-4.40599.0067-3.23898-.690771-5.95441-2.794604-10.88-1.219374-2.85485-1.230014-2.91632-1.21856-7.04.0064-2.288.06205-5.456.123777-7.04.136346-3.4991-.369397-5.00127-4.040108-12-5.255188-10.01976-7.658106-15.22376-8.919019-19.31594-3.051472-9.90326-5.905861-23.63708-5.898982-28.38281.0012-.83181-.415592-2.60329-.969803-4.12187-3.34593-9.16806-5.389016-21.62155-5.660267-34.50176-.196975-9.35325.22657-14.33552 2.019647-23.75762 1.41316-7.42574 5.901111-19.85444 9.937352-27.52 5.520441-10.48432 15.780906-22.63903 22.835186-27.05093 3.172434-1.98411 9.590926-4.65325 15.75667-6.55245 4.989522-1.536887 10.258757-4.357512 16.819443-9.003456 6.071514-4.299539 8.915442-5.927394 11.881969-6.801201 3.415476-1.006048 6.446126-.514896 14.795956 2.397863 7.07477 2.467969 10.34924 3.276571 11.27097 2.783275.37104-.198576 1.98898-1.348979 3.59541-2.55645 3.29949-2.480052 3.12311-2.087457 3.50725-7.806707.24397-3.632462-.0579-4.970191-1.99757-8.852156-1.47858-2.959178-1.70394-5.32234-.69332-7.270466.95816-1.847005 2.46392-2.761852 3.88256-2.35891.77679.220636 1.23695.69131 1.92586 1.969879.49786.923987 1.23627 1.896904 1.64092 2.16204.47257.309639 2.09458.578831 4.5348.752605 5.69566.4056 8.44499 1.59256 11.66474 5.035983l1.46566 1.567475.56929-.754725c.31311-.415098 1.62102-1.426787 2.90647-2.248196 1.90965-1.22028 2.77596-2.078829 4.73591-4.693472 6.10209-8.140394 12.4495-9.821044 20.31474-5.378876 1.44893.818334 3.17169 1.945646 3.82835 2.505137.73628.627329 1.86856 1.173558 2.95392 1.425019 6.24598 1.447083 10.71998 4.854614 17.49444 13.324264 3.03724 3.797256 5.16695 5.835043 7.16192 6.852799.68098.347412 1.31381.631657 1.40629.631657.0925 0 .59409-.828 1.1147-1.84 1.54021-2.994012 3.19218-4.867456 7.03333-7.976274 3.20305-2.592373 3.71164-3.142161 4.34241-4.694152.89778-2.20893 2.70857-4.694354 4.43584-6.088469 1.91312-1.544114 8.18775-5.772945 9.74306-6.566408 2.5121-1.281576 4.83351-.667262 5.99958 1.587662.42764.826959.42302 1.170965-.0432 3.220705-.68088 2.993616-.46402 4.369295 1.293 8.202393 1.83373 4.000427 2.23113 5.816562 2.22196 10.154543-.0184 8.720147-4.26681 16.676454-10.52334 19.707999-2.12463 1.02946-2.42605 1.08675-5.85198 1.11209-5.18978.0384-5.68792.75079-2.68223 3.83582 3.51987 3.6128 10.01109 11.8443 13.48799 17.10409 6.92074 10.46958 11.85201 22.26632 14.04546 33.6 1.2103 6.25368 1.4459 8.46773 1.43015 13.44-.0137 4.32644-.14849 5.59356-1.05525 9.92-1.10482 5.27151-1.14162 7.15857-.19031 9.76.60872 1.66461.61537 4.0479.0177 6.34253-.68769 2.64022-1.51436 4.0884-3.63449 6.36701l-1.87066 2.01046-.1927 2.56c-.11277 1.49814-.68436 4.21916-1.37802 6.56-1.06006 3.57731-1.17868 4.33816-1.1225 7.2.13219 6.73384-1.16842 13.32163-4.77169 24.16931-.8494 2.55712-1.78207 5.94112-2.07259 7.52-2.05889 11.18919-4.72298 17.40904-14.17167 33.0866-5.61234 9.31217-6.69802 12.25197-7.09953 19.22409-.30072 5.22202-.80005 7.22697-3.14798 12.64-1.64129 3.7839-1.81482 4.40592-1.91933 6.88-.16053 3.79988.57429 5.66601 3.45401 8.7718 2.81296 3.03378 3.14097 3.56106 3.53237 5.67836.26891 1.45466.59499 2.04011 1.87728 3.37046 2.97264 3.08406 4.60944 7.87892 3.39272 9.93867-.30993.52468-.9579 1.18694-1.43992 1.47167-1.30789.77259-4.67846 1.47897-7.08262 1.48432-1.5529.003-2.17347.12905-2.3028.46608-.60982 1.58916-5.53915 2.5881-11.25143 2.28013-2.112-.11386-4.6881-.42643-5.72465-.69459-1.52271-.39392-2.06419-.41319-2.81952-.10031-1.35295.5604-7.24601.18036-9.85584-.6356-1.144-.35767-2.872-1.12296-3.84-1.70065-2.31855-1.38367-3.48171-3.57159-3.74425-7.04297-.22571-2.98436.36814-4.94304 2.29033-7.55415 2.11114-2.86778 2.23172-3.16859 1.37368-3.42703-1.28298-.38643-2.79405-2.13047-3.28852-3.79554-.93412-3.1455-.63399-5.0223 1.68939-10.56426l1.46464-3.49362-.51704-1.94638c-1.50886-5.68014-.9716-9.32266 2.3372-15.84546 2.48664-4.90205 3.73519-8.77581 4.17929-12.96673.53328-5.0326-.64172-12.95878-2.45667-16.57193-.46477-.92525-.88885-1.7314-.9424-1.79146-.0536-.0601-1.22423.81576-2.60151 1.94626-7.49615 6.15303-12.58174 9.15751-18.29512 10.80841-1.55225.44853-2.60902.92351-2.60902 1.17267 0 .23033 1.15209 2.71554 2.5602 5.52269 3.4172 6.81241 4.52466 10.14103 4.72994 14.21648.18775 3.72755-.26581 6.64044-1.59827 10.26451-1.97903 5.38266-2.1822 6.12158-2.37448 8.6357-.21485 2.8093.30035 5.56615 1.4543 7.78201.34384.66026 1.64768 2.35246 2.89744 3.76046 3.17404 3.57596 4.01087 5.37862 4.01087 8.64001 0 2.2006.11988 2.76216.85385 4 1.48978 2.51248 2.1647 6.17446 1.40775 7.63824-1.03734 2.00598-4.48816 3.24176-9.05242 3.24176-2.35394 0-3.26062.13567-4.23768.63413-2.20059 1.12266-6.26237 1.60782-13.25341 1.58307-5.54189-.0196-6.72763-.11356-8.51809-.67481z" fill="#917c6f"/><path d="m234.42875 158.40053c-.58505 0-1.46875.86624-1.46875 1.43946 0 .46713.8454 1.43945 1.25195 1.43945.13615 0 .50893-.2879.82813-.64062.47955-.52989.51748-.77951.2168-1.43946-.20015-.43928-.57292-.79883-.82813-.79883zm-60.34961 5.11914c-.6944 0-1.59961.81449-1.59961 1.43946s.90521 1.4414 1.59961 1.4414c.32686 0 .82109-.22733 1.09766-.5039.27657-.27658.5039-.69864.5039-.9375 0-.62497-.90715-1.43946-1.60156-1.43946z" fill="#0ff"/><path d="m143.04 358.3424c-2.17896-.68303-2.43762-.7009-5.69971-.39374-3.6387.34262-8.07137-.81065-9.8141-2.55338-1.10007-1.10006-1.10832-3.74348-.0199-6.39062.58594-1.42512.69935-2.06392.47241-2.66083-.4595-1.20857-.35428-4.37252.18863-5.67187.268-.64142 1.00819-1.74281 1.64487-2.44754s1.10141-1.33367 1.03273-1.39764c-.0687-.064-1.13288.14996-2.36488.4754-3.42199.90392-8.10854 1.34787-12.09079 1.14535-1.97406-.10039-5.24521-.23945-7.26921-.30903-4.45097-.15299-5.82614-.5487-7.24463-2.08466-1.77774-1.92495-2.462034-3.67035-2.462034-6.27978 0-2.42121.469988-3.72159 2.702734-7.47805 2.32423-3.91036 1.13698-10.26861-3.01022-16.12101-2.302074-3.24862-3.305201-5.57604-3.902735-9.055-.173236-1.00861-.582075-1.60331-1.92829-2.80492-1.024651-.91459-1.860212-1.9848-2.08764-2.67391-.608904-1.845-.23772-4.46978 1.035327-7.32117 1.977199-4.42856 2.317272-6.51844 1.863524-11.4521-.213862-2.32534-.516225-4.38366-.671918-4.57404-.155694-.19037-1.041563-.75345-1.968598-1.25129-4.693767-2.52062-10.386766-6.78424-14.841279-11.11497l-1.955761-1.90142-.16707 3.94691c-.122447 2.89274-.478965 5.34398-1.334832 9.17766-1.918583 8.59389-1.895104 11.66659.138527 18.12925 1.823149 5.79378 1.860922 8.54021.194053 14.10918-.42523 1.42069-.934827 3.62513-1.132438 4.89877-.757308 4.88096.905442 11.6658 3.923107 16.00822 2.782523 4.00404 3.560928 6.15342 3.107485 8.58059-.14387.77009-.148186 1.90296-.0096 2.51747.550356 2.44021-.917316 4.72392-3.577714 5.56697-.764503.24226-2.974005.47672-4.910005.52102-2.505515.0573-3.888904.24188-4.8.64033-1.981817.8667-12.475245 1.04542-15.081894.25687-1.095675-.33146-3.077935-.59149-4.758107-.62417-6.328346-.12308-8.420506-2.60428-6.396353-7.58575.694971-1.71033.754558-2.12652.440644-3.07769-.817901-2.47827.251108-5.49633 2.753337-7.7733 1.475987-1.34312 2.990201-3.73779 3.561597-5.63252.253108-.83929.462878-2.82199.466156-4.40599.0067-3.23898-.690771-5.95441-2.794604-10.88-1.219374-2.85485-1.230014-2.91632-1.21856-7.04.0064-2.288.06205-5.456.123777-7.04.136346-3.4991-.369397-5.00127-4.040108-12-5.255188-10.01976-7.658106-15.22376-8.919019-19.31594-3.051472-9.90326-5.905861-23.63708-5.898982-28.38281.0012-.83181-.415592-2.60329-.969803-4.12187-3.34593-9.16806-5.389016-21.62155-5.660267-34.50176-.196975-9.35325.22657-14.33552 2.019647-23.75762 1.41316-7.42574 5.901111-19.85444 9.937352-27.52 5.520441-10.48432 15.780906-22.63903 22.835186-27.05093 3.172434-1.98411 9.590926-4.65325 15.75667-6.55245 4.989522-1.536887 10.258757-4.357512 16.819443-9.003456 6.071514-4.299539 8.915442-5.927394 11.881969-6.801201 3.415476-1.006048 6.446126-.514896 14.795956 2.397863 7.07477 2.467969 10.34924 3.276571 11.27097 2.783275.37104-.198576 1.98898-1.348979 3.59541-2.55645 3.29949-2.480052 3.12311-2.087457 3.50725-7.806707.24397-3.632462-.0579-4.970191-1.99757-8.852156-1.47858-2.959178-1.70394-5.32234-.69332-7.270466.95816-1.847005 2.46392-2.761852 3.88256-2.35891.77679.220636 1.23695.69131 1.92586 1.969879.49786.923987 1.23627 1.896904 1.64092 2.16204.47257.309639 2.09458.578831 4.5348.752605 5.69566.4056 8.44499 1.59256 11.66474 5.035983l1.46566 1.567475.56929-.754725c.31311-.415098 1.62102-1.426787 2.90647-2.248196 1.90965-1.22028 2.77596-2.078829 4.73591-4.693472 6.10209-8.140394 12.4495-9.821044 20.31474-5.378876 1.44893.818334 3.17169 1.945646 3.82835 2.505137.73628.627329 1.86856 1.173558 2.95392 1.425019 6.24598 1.447083 10.71998 4.854614 17.49444 13.324264 3.03724 3.797256 5.16695 5.835043 7.16192 6.852799.68098.347412 1.31381.631657 1.40629.631657.0925 0 .59409-.828 1.1147-1.84 1.54021-2.994012 3.19218-4.867456 7.03333-7.976274 3.20305-2.592373 3.71164-3.142161 4.34241-4.694152.89778-2.20893 2.70857-4.694354 4.43584-6.088469 1.91312-1.544114 8.18775-5.772945 9.74306-6.566408 2.5121-1.281576 4.83351-.667262 5.99958 1.587662.42764.826959.42302 1.170965-.0432 3.220705-.68088 2.993616-.46402 4.369295 1.293 8.202393 1.83373 4.000427 2.23113 5.816562 2.22196 10.154543-.0184 8.720147-4.26681 16.676454-10.52334 19.707999-2.12463 1.02946-2.42605 1.08675-5.85198 1.11209-5.18978.0384-5.68792.75079-2.68223 3.83582 3.51987 3.6128 10.01109 11.8443 13.48799 17.10409 6.92074 10.46958 11.85201 22.26632 14.04546 33.6 1.2103 6.25368 1.4459 8.46773 1.43015 13.44-.0137 4.32644-.14849 5.59356-1.05525 9.92-1.10482 5.27151-1.14162 7.15857-.19031 9.76.60872 1.66461.61537 4.0479.0177 6.34253-.68769 2.64022-1.51436 4.0884-3.63449 6.36701l-1.87066 2.01046-.1927 2.56c-.11277 1.49814-.68436 4.21916-1.37802 6.56-1.06006 3.57731-1.17868 4.33816-1.1225 7.2.13219 6.73384-1.16842 13.32163-4.77169 24.16931-.8494 2.55712-1.78207 5.94112-2.07259 7.52-2.05889 11.18919-4.72298 17.40904-14.17167 33.0866-5.61234 9.31217-6.69802 12.25197-7.09953 19.22409-.30072 5.22202-.80005 7.22697-3.14798 12.64-1.64129 3.7839-1.81482 4.40592-1.91933 6.88-.16053 3.79988.57429 5.66601 3.45401 8.7718 2.81296 3.03378 3.14097 3.56106 3.53237 5.67836.26891 1.45466.59499 2.04011 1.87728 3.37046 2.97264 3.08406 4.60944 7.87892 3.39272 9.93867-.30993.52468-.9579 1.18694-1.43992 1.47167-1.30789.77259-4.67846 1.47897-7.08262 1.48432-1.5529.003-2.17347.12905-2.3028.46608-.60982 1.58916-5.53915 2.5881-11.25143 2.28013-2.112-.11386-4.6881-.42643-5.72465-.69459-1.52271-.39392-2.06419-.41319-2.81952-.10031-1.35295.5604-7.24601.18036-9.85584-.6356-1.144-.35767-2.872-1.12296-3.84-1.70065-2.31855-1.38367-3.48171-3.57159-3.74425-7.04297-.22571-2.98436.36814-4.94304 2.29033-7.55415 2.11114-2.86778 2.23172-3.16859 1.37368-3.42703-1.28298-.38643-2.79405-2.13047-3.28852-3.79554-.93412-3.1455-.63399-5.0223 1.68939-10.56426l1.46464-3.49362-.51704-1.94638c-1.50886-5.68014-.9716-9.32266 2.3372-15.84546 2.48664-4.90205 3.73519-8.77581 4.17929-12.96673.53328-5.0326-.64172-12.95878-2.45667-16.57193-.46477-.92525-.88885-1.7314-.9424-1.79146-.0536-.0601-1.22423.81576-2.60151 1.94626-7.49615 6.15303-12.58174 9.15751-18.29512 10.80841-1.55225.44853-2.60902.92351-2.60902 1.17267 0 .23033 1.15209 2.71554 2.5602 5.52269 3.4172 6.81241 4.52466 10.14103 4.72994 14.21648.18775 3.72755-.26581 6.64044-1.59827 10.26451-1.97903 5.38266-2.1822 6.12158-2.37448 8.6357-.21485 2.8093.30035 5.56615 1.4543 7.78201.34384.66026 1.64768 2.35246 2.89744 3.76046 3.17404 3.57596 4.01087 5.37862 4.01087 8.64001 0 2.2006.11988 2.76216.85385 4 1.48978 2.51248 2.1647 6.17446 1.40775 7.63824-1.03734 2.00598-4.48816 3.24176-9.05242 3.24176-2.35394 0-3.26062.13567-4.23768.63413-2.20059 1.12266-6.26237 1.60782-13.25341 1.58307-5.54189-.0196-6.72763-.11356-8.51809-.67481zm15.68-2.3818c6.78935-.72011 6.55013-.41662 4.8024-6.09245-.74995-2.43548-1.71074-5.30352-2.13509-6.37342l-.77155-1.94528-4.06788-.69803c-5.55115-.95255-7.9551-.89746-10.78788.24721-1.78894.72288-2.26175 1.05781-2.34801 1.66326-.0594.41696-.5994 2.89106-1.2 5.498-1.14626 4.97547-1.32937 6.75563-.7328 7.12433.63108.39003 6.09769 1.01751 9.24081 1.06069 1.672.023 5.272-.19496 8-.48431zm-21.76265-.84059c-.0102-1.53785-.98874-7.41226-1.29645-7.78302-.71628-.86307-1.68734-.48854-3.38329 1.30491-1.93049 2.04146-2.9965 4.34828-2.36245 5.11227.41737.5029 2.04297 1.02636 4.48484 1.44417 2.1682.37099 2.56025.35898 2.55735-.0783zm78.97232-1.023c.0698-.0698-.30097-1.0382-.82396-2.15197s-1.51968-3.24903-2.21488-4.74503c-1.65436-3.56005-2.70346-4.8-4.06119-4.8-1.53551 0-4.19453.86405-7.01421 2.27929-2.46397 1.2367-5.97542 3.65301-5.97542 4.11182 0 .12882 1.01091 1.40215 2.24648 2.82963l2.24648 2.59541 2.95352.12722c3.21484.13847 12.43806-.0413 12.64318-.24637zm-44.08967-.1583c.616-.16376 1.732-.4565 2.48-.65055 1.10011-.2854 1.36-.49251 1.36-1.08378 0-1.95528-3.80837-7.56437-5.13593-7.56437-.94604 0-1.26889 1.01346-1.60715 5.04516-.17327 2.06516-.37844 3.93484-.45593 4.15484-.17108.48568 1.69681.54056 3.35901.0987zm25.41823-.23735c.22783-.5937.0882-.75255-3.0075-3.42225-1.9487-1.68052-2.1445-1.77338-3.36-1.59353-1.1907.17619-4.65073 2.17229-4.65073 2.68303 0 .49643 4.10844 2.38735 5.60001 2.57741 3.29443.41979 5.1962.33391 5.41822-.24466zm29.06178-2.87207c.66-.28957 1.2-.65435 1.2-.81063 0-1.07915-3.21573-5.59486-4.65645-6.53886-.64432-.42217-.96874-.45815-1.58783-.17607-1.07561.49008-1.24034 1.49921-.65602 4.01877.27516 1.18647.5003 2.78351.5003 3.54898v1.39177l2-.45374c1.1-.24956 2.54-.69066 3.2-.98022zm-39.28093-3.30855c1.39969-1.11233 3.40392-1.73909 4.6039-1.43973.46036.11486 1.3174.57438 1.90453 1.02117l1.0675.81235 1.3325-1.00074c2.22442-1.6706 6.32324-4.02113 8.6925-4.98483 1.72372-.70113 2.92248-.94504 5.20115-1.05826 3.46234-.17204 3.43466-.18682 5.40859 2.88931 1.48393 2.31252 2.22902 2.69117 2.51871 1.28.4825-2.35047.85567-3.2241 1.78179-4.17136.55314-.56575 1.27661-1.02864 1.60773-1.02864 1.34724 0 .2709-2.15532-2.54543-5.09709-2.45604-2.56543-3.1676-3.81594-4.04223-7.10394-.56665-2.13021-.56455-5.82962.004-7.60901.19596-.61296.1543-.71598-.20423-.505-.29966.17634-.2734.0592.0785-.34996.63092-.73365 3.20647-6.16098 3.96118-8.34719.35947-1.04131.61784-3.32799.78953-6.98782.14037-2.992.42893-6.00999.64126-6.70665.21232-.69667 1.15383-2.85667 2.09224-4.8 1.60879-3.3316 2.9906-5.77098 7.34887-12.97335 5.16797-8.54044 8.98971-17.21429 10.29254-23.36 1.49232-7.03957 1.79356-8.19065 3.51729-13.44 2.98653-9.09501 4.30916-15.98724 3.81735-19.89215l-.22824-1.81216-2.46045 1.51867c-1.35325.83527-3.75645 2.22143-5.34045 3.08034-1.584.85892-3.76654 2.18071-4.85009 2.93731-3.09061 2.15808-4.69495 2.67764-9.64202 3.12254-2.07571.18667-2.56826.37056-4.48 1.67256-1.18134.80456-2.65189 1.85581-3.26789 2.33611-.616.48029-2.452 1.76067-4.08 2.84527-1.628 1.08461-2.96 2.02867-2.96 2.09792 0 .0692.68751-.11622 1.52781-.41214 1.59304-.56101 5.48498-2.86053 8.23219-4.86393.88-.64174 1.96-1.35363 2.4-1.58199l.8-.41521-.8.88265c-.44.48545-2.168 1.97175-3.84 3.30289-3.63617 2.89488-6.52568 5.40241-8.75683 7.59919-2.00481 1.97394-4.81828 5.26213-4.50242 5.26213.12664 0 .96577-.61838 1.86475-1.37419 1.69114-1.42182 5.13249-3.91956 7.42339-5.38792.72262-.46316 2.23573-1.5885 3.36248-2.50076 2.51646-2.03742 9.11174-6.0546 12.04088-7.33408 3.52668-1.5405 5.67767-2.04488 8.12973-1.90632 1.91187.10803 2.32123.24444 3.08139 1.02679l.87663.90222-.8-.24812c-1.64187-.50923-4.90089-.21231-7.32676.66751-4.38401 1.59002-10.75138 5.39737-16.4723 9.84958-10.68929 8.31876-13.91923 11.51098-17.24905 17.0476-1.79521 2.98496-3.74288 7.40407-4.4201 10.02888-.62104 2.40702-.83832 6.74881-.33775 6.74881.15073 0 .36466-.97488.4754-2.16641.37303-4.01371 2.44111-9.20461 5.25596-13.19256 1.7168-2.43229 6.56489-7.49767 8.90415-9.30324 2.07942-1.60501 2.52258-1.63273.68566-.0429-2.18957 1.89505-5.41707 5.44657-7.1839 7.90509-1.60744 2.23674-3.80195 5.92-3.52717 5.92.0799 0 .67865-.80337 1.3306-1.78527 2.35161-3.54177 6.40264-7.68924 9.46526-9.69055l2.08-1.35922-1.44 1.20041c-4.66407 3.88805-9.86657 10.10988-11.99147 14.34097-1.67254 3.33036-2.92605 8.68598-3.51126 15.00189-.27459 2.96352-.58642 5.73552-.69295 6.16-.10654.42447-.11301.77177-.0144.77177.40266 0 2.21133-3.01324 3.20982-5.34755.97928-2.28939 1.08114-2.84438 1.2503-6.81245.10128-2.376.33846-4.72537.52705-5.22083.43081-1.13178.42923-1.2703-.0113-.99802-.5619.34727-.0106-1.69419.9994-3.70115 1.60395-3.18699 5.64652-8.04911 7.51482-9.03827.352-.18637-.10874.33782-1.02387 1.16486-2.53239 2.28863-4.37091 4.92713-6.35012 9.11319-.99654 2.10771-.81872 2.57655.20203.53269.84887-1.69969 4.75651-6.69457 5.0263-6.42479.10005.10005-.26073.64775-.80174 1.21712-2.86393 3.01405-5.5326 10.57758-5.5326 15.68045 0 1.5245-1.00997 4.78715-2.37523 7.67308-.47461 1.00324-2.52919 4.31204-4.56573 7.35288-2.03653 3.04084-4.04065 6.28144-4.45359 7.20134-1.54897 3.45064-1.62792 7.36399-.28966 14.3576.64189 3.35449.61781 5.94309-.069 7.42013l-.55323 1.18972-.0891-1.92c-.13204-2.84421-.32637-3.50311-.89421-3.03185-.57927.48075-2.39019 6.06154-2.39019 7.36596 0 1.44659.82349 3.13742 1.72896 3.54997 1.03049.46953 2.4315-.0771 4.12941-1.61101 3.01304-2.7221 3.37217-6.45415 1.30523-13.56346-.89319-3.07212-1.13424-7.71394-.47723-9.18961.31459-.70656.33538-.64897.17808.49312-.26073 1.89309.36978 5.28892 1.69092 9.10688 1.03931 3.00351 1.16486 3.7165 1.18339 6.72.0184 2.97698-.074 3.56064-.8101 5.12-.45696.968-1.48217 2.48039-2.27825 3.36087-1.03792 1.14796-1.51272 1.98744-1.67827 2.96729-.15161.89737-.82719 2.1976-1.96807 3.78775-2.27799 3.17503-2.72134 4.07822-2.74215 5.58624-.0166 1.20214.73742 2.85786 1.30146 2.85786.14774 0 .81181-.43167 1.4757-.95927zm9.76093-12.99587c4.07353-1.98059 8.49098-3.14047 10.73308-2.81816 1.20944.17387 6.14838 2.32854 5.40784 2.35924-.18649.008-1.54903-.29192-3.02786-.66588-3.61484-.91412-5.50573-.69834-11.43884 1.30531-2.62963.88804-4.91008 1.6133-5.06768 1.61169-.1576-.002 1.36946-.80811 3.39346-1.7922zm-3.2-1.23845c0-.093 2.43686-1.54271 4.37224-2.6011 2.43497-1.33159 4.48718-1.83217 7.48378-1.82547 2.63864.006 3.32467.12741 5.02308.88961 1.08188.48552 2.22667 1.17084 2.54398 1.52295.57466.63768.57191.63806-.70308.096-2.4868-1.05717-2.82349-1.14535-5.11228-1.33882-2.84243-.24027-6.04578.41515-10.48566 2.14542-1.71714.66919-3.12206 1.16931-3.12206 1.11138zm9.07361-8.81905c-.72951-.14438-2.08978-.64936-3.02283-1.12217-1.83553-.93013-5.19396-4.06849-5.46318-5.1052-.10379-.39965.56583.0863 1.7831 1.29415 5.04644 5.0072 12.52364 5.58029 17.10943 1.31136.79723-.74214.98902-.82841.73223-.32939-.42673.8293-2.3104 2.5113-3.50314 3.12809-.98962.51175-4.23387 1.17428-5.488 1.12073-.45167-.0193-1.4181-.15319-2.14761-.29757zm.20431-3.80635c-2.23286-.67921-4.47203-2.32013-5.26865-3.86102-.22748-.44-.50951-1.448-.62673-2.24l-.21313-1.44.6101 1.28c.76862 1.61259 1.40098 2.17088 3.58917 3.16878 2.40648 1.09744 5.36819 1.519 8.33472 1.18631 2.53778-.2846 3.46675-.62772 4.75163-1.75507.66947-.5874.65042-.52002-.13985.4947-.50319.64609-1.43947 1.46954-2.08062 1.82989-2.40989 1.35444-6.76239 2.00387-8.95664 1.33641zm1.44208-4.28948c-2.69063-.89121-4.5621-2.37236-5.72571-4.53154-.28455-.528-.76642-1.32-1.07082-1.76s.34101.0174 1.43424 1.01636c2.76477 2.52645 5.53993 3.83982 8.51734 4.0309 2.67082.17141 5.39056-.46456 6.53118-1.52722.39257-.36573.71377-.5423.71377-.39237 0 .48025-1.71494 1.89921-3.2 2.64772-1.75962.88688-5.31192 1.14154-7.2.51615zm2.12213-4.09936c-1.68773-.48555-5.01016-2.72929-5.98412-4.04124l-.88412-1.19094.93305.83289c3.1304 2.79435 5.80723 3.78872 10.35114 3.84513l3.06192.038-1.6.41127c-1.90448.48953-4.38693.53383-5.87787.10488zm2.19787-3.44059c-1.29166-.27909-5.90478-2.55347-5.66518-2.79308.0882-.0882 1.00298.26368 2.03279.782 2.22323 1.119 5.00736 1.79314 6.62537 1.60425.64154-.0749 1.05857-.0285.92673.10316-.38679.38616-2.70624.56586-3.91971.30367zm-.32-5.04542c-1.3002-.45443-2.98754-1.38617-2.51029-1.38617.10567 0 .74697.23183 1.42511.51518.67814.28334 2.09972.70389 3.15908.93456 1.77375.38621 1.82485.42019.6461.42955-.704.006-1.928-.21632-2.72-.49312zm16.64-19.11416c0-.12906 1.39115-3.14106 3.09145-6.69333 1.818-3.79819 3.85646-8.69955 4.94862-11.89868 1.92075-5.62622 2.23784-6.29879 1.37956-2.92619-1.35613 5.32896-2.51564 8.2317-6.28186 15.72619-2.92803 5.82657-3.13777 6.21373-3.13777 5.79201zm9.94526-24.69867c.0154-.37278.0912-.44861.19333-.19334.0924.231.0811.507-.0253.61334-.10633.10633-.18197-.0827-.16807-.42zm-93.63126 84.02667c.6464-2.14959.93181-2.51921 2.67087-3.45886 1.80707-.97639 6.49144-1.25819 11.74174-.70634 2.10836.2216 4.33117.42143 4.93958.44406.92983.0346 1.30142.29623 2.33071 1.64114.68899.90026 1.45765 2.42249 1.75758 3.48069l.53307 1.88069 1.13622-2.36069c1.40628-2.92178 2.65937-3.89557 4.81622-3.74273 1.42815.10119 1.43917.0941 1.33889-.85796-.13977-1.327-1.21252-3.02963-4.03236-6.40001-1.32526-1.584-2.88138-3.80875-3.45804-4.94389-.99982-1.96809-1.048-2.22802-1.03805-5.6.008-2.74033.17202-4.05763.72844-5.85354.39489-1.2746.72963-2.4266.74387-2.56.0142-.13341.29889-.77772.63257-1.43179.33369-.65408.98413-2.50501 1.44543-4.11319.74328-2.59121.81988-3.31164.67311-6.33077-.20894-4.29791-.73337-5.82419-4.63294-13.48355-3.23525-6.35456-4.98173-10.27169-6.5414-14.67154-1.22814-3.46459-3.2601-10.46945-3.77443-13.01173-.86923-4.29652-2.69111-10.98209-3.71564-13.63494-1.31896-3.41523-1.38737-4.03203-.15099-1.3614.83454 1.80266 2.88364 5.06478 2.48517 3.95634-1.36977-3.81028-2.71205-6.23331-4.96356-8.96l-1.45328-1.76 1.53681 1.44c3.15839 2.95944 4.63143 5.92735 6.43234 12.96l1.06529 4.16.0194-2.74881c.0238-3.3741-.77227-6.67478-2.49803-10.35745-1.91497-4.08644-3.38871-5.98954-7.41242-9.57196-1.36167-1.21233-1.48025-1.38096-.53422-.75964 2.22145 1.45896 5.88735 4.98593 7.13318 6.86285 1.43265 2.15838 3.28259 6.28502 3.84411 8.57501.33608 1.37057.39624 1.45313.41955.57575.20768-7.81646-9.42283-20.9697-18.79808-25.6742-5.7545-2.88761-11.46579-4.18446-18.39095-4.17599-5.18958.006-8.18655.51657-10.74937 1.83005-3.27165 1.67675-4.36422 5.16464-4.12183 13.15837.11254 3.71152.24331 4.60588.87235 5.96602.89529 1.93585 3.25275 5.6 3.60296 5.6.13867 0 .25213-3.12.25213-6.93333s.0596-6.87333.13249-6.8c.0729.0733.28871 2.51731.47966 5.43105.3695 5.63859 1.12912 9.41069 2.46626 12.24704.57403 1.21763.73503 1.40144.60899.69524-.71242-3.99152-.77962-7.13586-.22225-10.4l.57373-3.36.19647 4.16c.21441 4.53996 1.35068 11.35552 2.85421 17.12.71324 2.73459 1.6461 5.07758 3.63108 9.12 1.46919 2.992 3.09855 6.088 3.6208 6.88 4.8899 7.41558 10.40646 17.28767 11.85832 21.2209 1.09198 2.9583 1.34264 4.52021 1.62719 10.1391.23732 4.68653.38262 5.6217 1.29268 8.32 1.50235 4.45445 1.89624 6.28798 1.90897 8.88601.0196 4.002-1.71842 7.99304-5.64427 12.9609-2.44747 3.09707-2.90442 3.9045-3.14633 5.5595-.28519 1.95103.10576 2.19815 1.95756 1.2374 3.29264-1.70828 5.52603-1.27539 7.07738 1.37178.8131 1.38746.86139 1.41775 1.08146.67836.12669-.42567.46852-1.56594.75961-2.53394zm2.88599-10.86626c1.76-.88115 4.05826-1.82072 5.10724-2.08792 2.47877-.63141 6.33645-.61831 9.22959.0314 2.37644.53364 4.2463 1.30725 2.14317.88669-1.82511-.36497-9.64253-.24671-11.2.16943-.792.21161-2.74082.80074-4.33071 1.30918-1.5899.50844-3.1739 1.00744-3.52 1.10889-.34611.10145.81071-.53648 2.57071-1.41763zm-2.25586-2.22807c.34556-.55914 3.2239-2.00026 5.58335-2.79547 4.50625-1.51875 9.22106-1.33272 14.29007.56385 1.93553.72417 2.22137 1.11156.44125.598-1.7689-.51032-6.88197-1.27209-8.53536-1.27164-1.96118.00053-7.46464 1.33399-9.83843 2.38379-2.04425.90407-2.20384.94695-1.94088.52147zm5.93586-7.71221c-3.3672-.46417-6.1094-2.18972-8.07792-5.0831l-1.00036-1.47037 1.82204 1.83608c2.31132 2.32914 4.33727 3.35593 7.48549 3.79381 3.41158.4745 7.8727-.11468 9.69075-1.27988.44-.28199 1.32625-.77937 1.96943-1.10529 1.09653-.55563 3.84289-3.09241 4.89853-4.52472.27555-.37386.47592-.46796.48187-.22629.01.40123-2.20506 2.98975-3.82983 4.47581-1.36443 1.24795-4.21439 2.65119-6.69118 3.29455-2.46801.64108-3.78725.69766-6.74882.2894zm-.47842-4.5145c-1.96248-.67474-4.75978-2.49154-5.06638-3.29053-.1247-.32494.32137-.24617 1.64689.29085 2.28926.92746 6.42062 1.56438 8.34578 1.28666 3.89496-.56189 8.10287-2.41816 10.39954-4.58763l1.24741-1.17832-1.0538 1.6c-.57959.88-1.50092 2.07606-2.04741 2.6579-3.2548 3.46538-8.86213 4.80606-13.47203 3.22107zm-1.8618-4.9076c-1.37512-.40983-2.58712-.83204-2.69333-.93825-.10621-.10622 1.74178-.19312 4.10665-.19312 3.35797 0 4.82404-.14468 6.69334-.66054 2.76081-.76189 6.06619-2.50232 6.99509-3.68323.35226-.44782 1.04302-1.12968 1.53503-1.51523l.89455-.701-.91498 1.6c-.50325.88-1.77868 2.48547-2.8343 3.5677-1.57151 1.61113-2.29041 2.08952-3.96728 2.64-2.80477.92074-6.48121.87716-9.81477-.11633zm.26575-4.37398c-2.37551-.55606-1.81021-.82215 1.41652-.66677 4.75502.22897 8.26545-.84178 11.61795-3.54369 1.52586-1.22974 1.97464-1.26138.94936-.0669-1.35915 1.58342-4.10586 3.39498-6.06497 4.00009-2.21832.68517-5.66135.80573-7.91886.2773zm-.64553-3.61312c-1.56308-.53384-.76749-.62779 1.39283-.16449 2.00706.43044 4.78946-.0347 7.88717-1.31862 1.74373-.72271 2.06276-.78883 1.44-.29845-2.33484 1.83854-7.86307 2.75728-10.72 1.78156zm4.64-4.49347c1.69377-.56586 2.17486-.61749 1.744-.18718-.1672.167-.952.38567-1.744.48595l-1.44.18231zm2.24-.46598c0-.16235.54-.47001 1.2-.68368.66-.21368 1.89832-.73853 2.75182-1.16634.8535-.4278 1.60981-.71984 1.68069-.64896.1267.12671-5.06777 2.79416-5.44123 2.79416-.1052 0-.19128-.13283-.19128-.29518zm-15.82173-5.54586c-1.17099-2.88347-4.61825-9.68379-8.29704-16.36732-5.12156-9.30476-9.82677-19.15276-9.36938-19.61015.0556-.0556.64721 1.15883 1.3147 2.69872s2.10926 4.38379 3.20394 6.31979 2.35066 4.168 2.79108 4.96 2.02685 3.6 3.52539 6.24c3.45167 6.08084 4.73437 8.63312 6.30546 12.54641 1.11783 2.78431 1.9051 5.53545 1.5832 5.53255-.0636-.00057-.5394-1.04457-1.05735-2.32zm-71.537545 37.60104c.121038-5.08291.05802-5.61913-.731189-6.22197-.898414-.68626-2.98702-1.21803-4.784005-1.21803-1.641653 0-4.915009.80248-5.898727 1.4461-.988166.64652-1.974684 3.54852-2.224464 6.5436l-.214355 2.57031h6.889222 6.889223zm57.919025 2.78109c2.55186-.18292 4.74562-.43845 4.87501-.56784.24756-.24757-2.78451-5.87419-4.12418-7.65325-.67734-.89948-.97504-1.04-2.20343-1.04-2.465 0-4.9449 1.19253-8.25652 3.97036-1.33054 1.11608-1.4901 1.39101-1.48573 2.56.006 1.6283.21356 1.95955 1.60543 2.56327 1.32579.57507 3.39822.61126 9.58942.16746zm-13.71124-.13626c.18587-.18587-.23371-3.9767-.46586-4.20884-.0892-.0892-.74892.20821-1.46605.66092-.71714.4527-1.50042.82309-1.74064.82309s-.70048.29141-1.0228.64757c-.46051.50886-.50269.73161-.19693 1.04.68761.6935 4.44037 1.48917 4.89228 1.03726zm-62.768509-.47878c-.374803-.2375-.465259-.90267-.412738-3.0351.05301-2.15231-.02713-2.73095-.37821-2.73095-.897331 0-3.233214 4.26774-2.863384 5.2315.227815.59368.796929.76403 2.694332.80648 1.024306.0229 1.301435-.0556.96-.27193zm27.614753-.13246c1.020114-.24003 1.934785-.51646 2.032603-.61427.09782-.0978-.07004-.92418-.373017-1.83636-.662188-1.99366-2.066191-3.69735-2.811332-3.41141-.727628.27921-2.118107 3.15747-2.352895 4.87043-.194379 1.41816-.184343 1.43796.726393 1.43303.507923-.003 1.758134-.20139 2.778248-.44142zm60.805626-2.82199c.63064-.84609.63263-.9009.0774-2.13217-.70985-1.57416-2.29009-3.12423-3.48549-3.41894-1.0492-.25866-1.0576-.62386.0978 4.25233l.77544 3.27281.94381-.55281c.5191-.30405 1.23509-.9436 1.59109-1.42122zm-27.33571-2.16563 2.04467-1.02027.95093.70305c.93215.68917.96545.69129 1.68564.10716 4.33489-3.51591 7.28314-4.91591 10.35242-4.91591 1.5438 0 2.08309.15752 3.12611.91308.69325.50219 1.51319 1.29878 1.82207 1.7702.73003 1.11416 1.05028.87144 1.25578-.95177.20945-1.85824 1.0974-2.81951 2.60446-2.81951h1.10096l-.60693-1.18968c-.33381-.65433-1.72605-2.32122-3.09386-3.7042-3.90836-3.95174-5.49273-7.08124-7.32197-14.46263-.60191-2.42885-1.15639-5.65823-1.28023-7.45626-.18866-2.73932-.2884-3.14225-.73158-2.9555-1.73601.73154-4.43926 1.41578-5.58165 1.41281-2.25888-.006-5.58881-1.26305-7.57149-2.85854-1.05004-.84498-.55143-.84826.59064-.004 1.85697 1.37291 6.07279 2.0387 9.01776 1.42414 2.24011-.46747 3.42492-1.16858 3.84589-2.27581.4127-1.0855.39331-1.14851-.25429-.82651-2.10395 1.04611-6.94182 1.25614-8.36229.36304-.37072-.23309-.056-.26988 1.10868-.12958 2.02126.24349 5.19948-.52526 7.0915-1.7153.93265-.58662 1.66506-1.4303 2.33876-2.69409.53949-1.012.89426-1.84.78839-1.84s-.95118.57282-1.87847 1.27292c-2.43756 1.84038-3.99597 2.32221-7.56657 2.33944-3.55357.0172-5.84788-.70344-7.87289-2.47269l-1.24711-1.0896 2.45176 1.22389c3.31835 1.65648 6.82497 2.00957 10.09462 1.01644 1.83796-.55826 5.10911-2.50158 4.77435-2.83634-.0562-.0562-1.24033.11565-2.63144.38184-3.4559.66131-5.04024.60086-7.55977-.28841-3.24989-1.14704-6.51134-3.79393-8.23632-6.68432-.39941-.66926-.80636-1.13667-.90434-1.03869-.098.098-.34961 1.29355-.55919 2.65683-.20957 1.36328-.86249 4.78269-1.450909 7.59869-1.329089 6.36058-1.372554 8.94937-.206056 12.27253.454183 1.29389 1.466375 3.30989 2.249315 4.48 3.57585 5.34414 4.84275 9.04292 4.64511 13.56169-.12546 2.86865-.19781 3.11478-1.95556 6.65232-2.08726 4.20073-2.47131 5.96878-1.69833 7.81876l.52086 1.24659 1.03295-.98282c.56812-.54056 1.95305-1.44195 3.07762-2.0031zm3.27788-8.71177c.63941-.5815 2.58341-1.69916 4.32-2.48368 4.00029-1.80716 6.28856-1.94789 9.07745-.55828.968.48232 1.472.78152 1.12.66489-4.02546-1.33384-7.73181-.61785-14.4 2.78176l-1.28.65258zm-.84255-1.22509c1.37291-1.69276 2.97437-2.94159 5.18439-4.04278 2.20558-1.09899 2.41909-1.1422 4.97947-1.00782 1.72511.0906 2.9319.32029 3.39828.64696.67779.47474.55501.49605-1.95604.33939-4.20768-.26251-5.75356.32308-11.5738 4.38425l-.6723.46911zm-.16-22.58457c-1.7212-.781-3.52-2.19799-3.52-2.77285 0-.15872.42976.073.95501.51501 1.64584 1.38488 4.33949 2.22005 7.28489 2.25868 2.19222.0288 2.54814.10245 2.09883.43462-.96774.71546-4.82519.46911-6.81873-.43546zm-8.10367-2.42963c-.45393-1.84775-.59173-4.21628-.34431-5.918.25229-1.73523.28252-1.58432.46143 2.30309.1053 2.288.16265 4.20271.12744 4.25491-.0352.0522-.14527-.23581-.24456-.64zm-51.084786 34.44125c1.789268-3.69613 3.658622-4.72655 8.628458-4.75615 2.236888-.0133 3.73437.13422 4.48.44138 1.994265.82153 3.452942 1.96182 3.839963 3.0018 1.054079 2.83247.869725 2.74179 2.088644 1.02736.601209-.84562 1.398212-1.75118 1.771116-2.01238.908464-.63631 3.285825-.35707 4.480626.52628 1.146134.84737 1.260379.84333 1.256525-.0444-.0046-1.0562-1.24958-3.52015-3.499541-6.92589-2.360644-3.57327-4.134619-8.41675-4.408351-12.03613-.209067-2.76434.314786-6.6759 1.392542-10.39798.992668-3.42822 1.273779-6.9202.787467-9.78197-.368772-2.17009-2.252275-8.12542-3.087909-9.76347-1.236136-2.42313-3.002971-8.42227-3.056806-10.37913-.0314-1.14149-.180213-2.07543-.330687-2.07543s-.273589.15063-.273589.33473c0 .18409-.756.68669-1.68 1.11687-1.845279.8591-3.217262 1.06779-1.68.25554 1.174327-.62048 2.08-1.3903 2.08-1.76799 0-.15492-.298247-.12205-.662771.073-.882992.47256-7.502025.81783-7.757387.40464-.112128-.18142.307308-.33271.993018-.35818 4.07837-.15144 7.322275-2.42061 9.105623-6.36955.566616-1.25468.684886-2.09267.659022-4.66944-.01734-1.72719-.102763-3.21158-.189835-3.29865-.08707-.0871-1.005204.19814-2.040293.6338-2.688942 1.13176-5.742167 1.36253-9.080347.68632-2.788554-.56488-4.77645-1.32564-2.387031-.91351 2.038398.35159 6.492037.30669 6.868839-.0692.242839-.24228-.489151-.45235-2.517099-.72235-3.754716-.49991-6.548745-1.38814-10.32192-3.28139-5.395882-2.70746-8.477885-4.90636-12.241721-8.73404l-3.491902-3.55112.214002 2.08878c.285702 2.78862 2.132514 10.08431 3.80256 15.02174 1.933263 5.71562 7.656108 17.14346 11.640452 23.2446 1.208139 1.85 3.912304 4.41063 5.388289 5.10229l.9785.45853-1.12-.13707c-1.2332-.15092-2.94345-.85538-4.123017-1.69829-.751217-.53681-.759227-.5333-.517895.22707.293538.92486.306065 4.47525.03049 8.64287-.268483 4.06042.08546 5.86108 2.079449 10.57923 1.621623 3.83704 1.687271 4.10787 1.81819 7.50077.227279 5.89016-1.0976 9.76104-4.597056 13.43117-2.006246 2.10409-2.690165 3.40609-2.690165 5.12135v1.13308l1.750612-.20575c2.421566-.28461 3.208685.2718 3.899506 2.75654.290612 1.04528.637764 1.83291.771447 1.75029.133683-.0826.561173-.80736.949978-1.61052zm1.47688-11.35969c4.436862-2.92512 10.148425-2.95697 15.0967-.0842.761817.44228 1.32383.86544 1.248919.94035-.07491.0749-1.341609-.29462-2.814882-.82119-4.784844-1.71016-8.66403-1.57719-13.257898.45443-2.51824 1.11369-2.568278 1.02393-.272839-.4894zm-1.168423-2.40922c0-.0656 1.008538-.62709 2.241194-1.24785 4.029952-2.02945 8.540489-2.02887 12.70459.002 1.316141.64177 2.33788 1.22197 2.270533 1.28932-.06735.0673-1.34057-.30151-2.829383-.81967-2.297314-.79956-3.191165-.94212-5.906933-.94212-2.697572 0-3.614504.14428-5.840001.91894-1.452.50542-2.64.8653-2.64.79974zm10.59804-18.4619c1.467387-.42204 3.374323-1.71927 4.601961-3.13059l.64-.73576-.96.65523c-.528.36038-1.941274.97843-3.140608 1.37345-4.030957 1.32766-9.301217.40345-11.951207-2.09582-.641592-.6051-1.052689-1.2063-.913549-1.33602.13914-.12971.318734-.0514.399097.17394.215683.60487 2.879313 1.86702 5.229114 2.47778 4.228671 1.09913 8.369783-.13154 11.164822-3.31801l1.548671-1.76555-.435305 1.67814c-.963699 3.71516-3.240524 6.00666-6.268803 6.30922l-1.392232.1391zm-6.595654-5.66149c-.123749-.20023.316494-.24597 1.200742-.12477 1.674902.22957 4.459743-.30262 6.183121-1.1816l1.253752-.63946-.914811.77077c-.503145.42392-1.455852.93286-2.117126 1.13098-1.483153.44437-5.339548.47469-5.605678.0441zm-.962386-3.95865c-.88-.22446-2.032-.64469-2.56-.93384-1.226386-.67163-.813516-.70034.730278-.0508 2.686111 1.13017 7.635522.35239 10.308983-1.62003 1.363506-1.00596 1.59789-1.01939.676631-.0387-.918511.97771-4.619013 2.68205-6.275892 2.89049-.704.0886-2-.0226-2.88-.24708zm82.428679 35.42852c-.3532-1.38255-1.16714-4.09773-1.80876-6.03373-1.07032-3.22955-1.18799-3.95567-1.42609-8.8-.30476-6.20077-.90994-8.68309-3.12061-12.8-1.65435-3.08089-4.03604-6.88036-4.48805-7.15972-.38129-.23565-1.22482 2.47933-1.67532 5.39216-.71339 4.61263 1.0068 14.03125 3.44958 18.88756.44265.88 2.05911 2.896 3.59213 4.48 3.49136 3.60748 3.84844 4.14625 3.84844 5.80659 0 1.08613.197 1.54118 1.02616 2.37034.56438.56438 1.07532.87864 1.13542.69834s-.17971-1.45899-.5329-2.84154zm-18.58868-39.15373c0-.176-.18944-.32-.42098-.32-1.23057 0-7.62359-2.42813-10.47924-3.98012-1.80532-.98115-3.32733-1.73899-3.38224-1.68408-.0549.0549.33907.63233.87552 1.28313 1.45985 1.77106 4.71016 3.95024 6.69362 4.48776 2.02101.5477 6.71332.6968 6.71332.21331zm-4.48168-20.32c-.002-.39983-.39559-.99686-4.14449-6.2885-5.16555-7.29126-7.60436-12.62251-8.50383-18.58939-.2585-1.71484-.469997-3.18607-.469997-3.2694 0-.0833-.945311-1.20028-2.100692-2.48211-3.702724-4.10796-5.631182-7.63095-6.727556-12.29017-.701187-2.97982-.45455-9.03465.485097-11.90894.899118-2.75031.844208-3.70203-.453418-7.8588-1.407807-4.50972-2.573102-10.73319-3.241661-17.31269-1.15294-11.34644.219021-22.37014 4.380634-35.19838 2.830255-8.7243 7.689946-18.57388 13.648513-27.6627 1.10298-1.6824 2.00624-2.92753 2.00725-2.76693.001.16059-.41838.95259-.93197 1.76-2.82798 4.44583-8.313262 15.5546-10.363445 20.98801-3.123789 8.27869-5.477142 18.34823-6.319517 27.04-.424351 4.37853-.257748 12.19704.35458 16.64.407664 2.95796 1.03646 4.73853.734539 2.08-.222967-1.9633.34387-8.5515 1.197652-13.92 1.274355-8.01301 4.363576-19.0062 7.643541-27.2 1.56578-3.91153 6.79705-14.73536 9.3569-19.36 9.04152-16.33448 15.50034-27.179189 16.58732-27.850978.19142-.118302-.35763.915772-1.22011 2.297938-3.21582 5.15356-10.90023 19.79902-15.7582 30.03304-8.9484 18.85111-14.130692 37.79723-14.617323 53.44-.196562 6.31853.007 8.90729 1.189104 15.12548.709923 3.73426.604311 5.14019-.783455 10.42956-.900706 3.43297-1.025652 5.87641-.467312 9.13875.383191 2.23897 1.738653 5.57936 2.823756 6.95884.567566.72155.658841.75255.678583.23053.210904-5.57669 3.153657-8.95577 9.171817-10.53174 6.94818-1.8195 21.8541 2.00888 32.01616 8.22292 4.65602 2.84713 10.17648 7.78972 13.39759 11.99515.99019 1.29278 1.86606 2.35051 1.94639 2.35051.34834 0-2.92631-5.09304-4.52648-7.04-.36163-.44.042-.152.89705.64 1.57262 1.45673 4.74225 5.94635 6.14326 8.70161 1.1703 2.30154 2.35105 6.76217 2.58065 9.74915.11376 1.47997.32921 2.76649.47879 2.85893.14958.0924.27305.0516.27438-.0908.001-.14239.14828-1.1577.32656-2.25625.29665-1.82793.0853-4.65711-.50097-6.70521-.0909-.31759.13667.0706.50573.86257 1.80139 3.8658 1.56875 9.51938-.56868 13.82019-1.34526 2.70686-1.31516 3.17389.0862 1.33667 1.49012-1.95366 2.65994-5.19678 3.06582-8.4995 1.0051-8.1787-2.89993-17.29642-10.94789-25.56188-3.22724-3.31445-8.68735-7.46584-12.92915-9.8302-2.80231-1.562-.72273-1.02528 2.88.7433 5.8885 2.89065 12.30966 8.32268 16.5057 13.96312 2.40269 3.22976 5.41834 9.3075 6.56362 13.2283 1.13453 3.884 1.397 8.66013.60873 11.07691-.66345 2.03405-3.10457 5.86226-4.1929 6.57536-1.22039.79963-.88461 1.14169.45157.46002 1.97514-1.00764 4.36016-3.37601 5.44002-5.40204 3.04053-5.7046 2.52584-13.46885-1.4093-21.26005-1.58098-3.13019-6.34768-10.53925-8.4228-13.09185-3.32109-4.08529-4.7178-5.91358-5.69445-7.45403-1.24204-1.95907-2.97242-5.19008-2.96439-5.53519.003-.13702.41147.48651.9073 1.38562 1.18435 2.14767 4.50045 6.30287 7.88904 9.88525 1.4983 1.584 3.76677 4.30702 5.04103 6.05115s3.61283 4.67949 5.19683 6.52302c2.43267 2.83124 5.90805 7.34467 5.91731 7.68472.009.3334-.81994-.54605-2.14253-2.27286-.83662-1.09231-1.90711-2.41803-2.37886-2.94603s-1.16325-1.32-1.53666-1.76.10173.784 1.05587 2.72c2.17249 4.40811 3.05247 7.60706 3.28976 11.95902.35811 6.56792-1.67958 11.37111-6.00026 14.14368-1.52917.98127-1.78547 1.74053-.3234.95806.35018-.18742.92192-.34076 1.27053-.34076 1.10144 0 5.58588-2.56689 7.18655-4.11357 1.98456-1.91763 3.08172-3.86161 4.63162-8.20643 2.50676-7.02715 4.19582-10.01396 9.30428-16.45294 2.63939-3.32683 3.44681-4.88468 1.97252-3.80584-2.70648 1.98053-5.81437 4.72503-8.58352 7.57992-2.9619 3.0536-3.24573 3.27156-2.79409 2.14563.94857-2.36473 3.90676-6.39002 5.8989-8.02677 1.07107-.88 1.94843-1.71306 1.94969-1.85126.003-.28069-1.01009.20277-2.26703 1.08234-.45613.31918-1.8086 1.09077-3.00549 1.71463-5.57628 2.90656-10.2771.38568-19.06844-10.22571-8.75739-10.5704-10.53754-13.87353-14.22777-26.4-2.28309-7.74995-4.69321-14.3395-8.51293-23.27533-6.75429-15.80096-9.62814-27.71239-9.63254-39.92467-.004-10.13777 1.22448-16.4222 5.08882-26.03975l1.71962-4.27976-1.20598-1.43283c-1.81707-2.158892-2.77652-3.569323-3.86908-5.687659-.99805-1.935117-1.97689-5.127947-1.97689-6.448346 0-.958193-.49956-1.211876-1.0181-.517007-.23204.310944-1.6459 1.591911-3.1419 2.846593s-3.152 2.673011-3.68 3.151843c-2.35384 2.134652-6.74046 4.554596-13.92 7.679176-1.496.65107-3.152 1.37368-3.68 1.60581-1.40922.61954-4.40514 1.46346-4.578798 1.2898-.08248-.0825.194008-.28087.614418-.44088 3.38712-1.2891 5.66437-2.38165 9.24438-4.43515 4.47625-2.567578 5.49522-3.268011 8.92023-6.131736l1.72022-1.438315-2.69023-.714151c-1.47962-.392783-4.72032-1.51593-7.20156-2.495881-6.24505-2.466453-8.5057-2.978179-11.153252-2.524672-2.711855.464521-6.003037 2.130253-9.755406 4.937401-5.344593 3.998293-8.190016 5.947812-10.604796 7.26579-2.562689 1.398704-9.123862 4.129924-14.195204 5.909044-8.928521 3.13228-12.921916 5.58459-18.40271 11.30095-12.90663 13.46136-21.573924 31.7256-24.809352 52.27973-.706603 4.48893-.979238 17.04217-.496915 22.88 1.647441 19.93992 6.627786 34.62208 15.468 45.6 8.696608 10.79959 16.386262 11.30392 18.204318 1.19394.718787-3.99709-.347899-8.13712-5.089637-19.75394-1.32903-3.256-2.601532-6.424-2.827782-7.04-2.026107-5.51638-2.439641-6.68224-2.667373-7.52-.143528-.528-.779638-2.65119-1.413577-4.7182-2.972709-9.69277-4.875819-20.70431-5.65527-32.7218-.69987-10.79052.762037-20.66365 4.667144-31.52.824661-2.29259 1.036659-1.98023.340654.50192-1.18437 4.22381-1.587083 7.67278-1.566737 13.41808.02338 6.60255.494255 9.12444.832138 4.45675.370766-5.12197 3.494257-14.86701 6.843998-21.35272 1.635054-3.16577 4.433277-7.06857 6.355311-8.86403l1.198957-1.12-1.201131 1.6c-1.937777 2.58127-5.116109 9.38456-6.839716 14.64058-2.472666 7.5402-4.290235 16.76631-4.176346 21.19942l.03288 1.28.30467-1.44c1.39787-6.60694 2.072609-8.73754 4.256318-13.44 2.29811-4.94881 4.501499-8.93716 6.275915-11.36 6.204167-8.47136 7.140724-9.61578 10.081159-12.31861 1.528238-1.40475 1.52287-1.39345-.228001.48-6.435432 6.88597-13.213806 17.81209-16.774286 27.03861-1.248553 3.23547-2.158443 7.70081-2.897402 14.21917-.427309 3.7693-.503857 6.4064-.362262 12.48.302534 12.97694 1.650849 19.55414 6.907396 33.6949 1.122348 3.01926 5.626099 12.14717 7.354443 14.90552 7.33526 11.70669 13.945697 19.23286 22.294902 25.38338 8.533057 6.28595 19.801402 11.33484 28.402022 12.7258 2.69511.43588 3.74876.44466 3.74659.0312zm-26.213055-53.14666c.01535-.37279.09118-.44861.193334-.19334.09244.231.08107.507-.02526.61334-.106334.10633-.181965-.0827-.168071-.42zm-30.089101-3.76482c-1.234902-3.70675-2.015616-6.94626-2.787981-11.56852-.727418-4.35326-.832246-17.59922-.173475-21.92 2.971749-19.49126 10.860491-33.67281 29.628275-53.26258.683639-.71358 1.081289-.98597.883667-.60531-.197623.38066-.472237.74066-.610254.8-1.103078.47426-11.737332 13.708-15.38669 19.14789-4.188718 6.24388-8.19649 15.00014-10.414358 22.75349-4.242131 14.82989-4.447237 32.54427-.525548 45.38997.979832 3.20949.514968 2.65273-.613636-.73494zm29.667396 2.50323c-1.687555-5.65243-2.604504-8.83911-2.806008-9.75175-.13601-.616-.468686-2.128-.73928-3.36-2.696809-12.2784-2.850693-27.07074-.398454-38.30195 2.381864-10.90889 7.898146-23.74476 14.299874-33.27446 2.411712-3.59011 3.059056-4.00413.824944-.52761-2.090774 3.25348-6.311021 11.08817-7.629602 14.164-7.063823 16.47768-9.449723 37.31053-6.50736 56.82002.652378 4.32563.684501 4.47173 2.101044 9.55617.704279 2.52789 1.227171 4.75617 1.161981 4.95174s-.203403.0713-.307139-.27616zm-39.773907-39.19175c.115696-5.38069.685024-8.84385 2.228483-13.55561 2.667289-8.14251 8.167726-18.57494 12.171105-23.08439.74462-.83875.375121-.12171-1.071854 2.08-2.74459 4.17616-6.301514 11.12643-8.226242 16.07418-2.791156 7.17501-3.688303 10.96771-4.902605 20.72582-.262654 2.11068-.28663 1.84065-.198887-2.24zm15.530349-38.20082c0-.0665.252-.31845.56-.56.507537-.39803.518856-.38672.120817.12082-.418038.53304-.680817.70256-.680817.43918zm120.122528 129.92703c7.18345-3.69634 11.90573-9.2146 17.57853-20.54154 3.11613-6.22202 4.20614-7.60012 2.26581-2.86467-.79327 1.936-2.02161 4.96-2.72965 6.72-2.46546 6.12848-4.00816 8.70648-6.98977 11.68059-1.50009 1.49632-3.55548 3.28428-4.56753 3.97324-1.01205.68897-1.78877 1.30398-1.72605 1.3667.0627.0627 1.07126-.31545 2.24122-.84037 3.42221-1.53544 7.35766-5.04764 10.8676-9.69881 3.06909-4.06697 9.49732-15.73925 9.49732-17.24507 0-.53872-.28571-.59628-2.96-.59633-3.35819-.00006-7.02351-.61592-9.51838-1.59931-.93364-.368-1.88028-.62669-2.10366-.57487-.22338.0518-1.02981.97725-1.79206 2.0565-.76225 1.07924-2.36455 3.23924-3.56066 4.8-3.77855 4.93044-4.73747 7.49023-5.64062 15.0574-.44942 3.76548-1.37443 6.15283-3.14854 8.12608-1.77725 1.97673-1.2806 2.01593 2.28644.18046zm8.14344-11.08385c.72709-.5267 2.20927-2.0387 3.29372-3.36 2.06439-2.51525 2.75115-3.13089 1.51977-1.36236-2.10219 3.01919-4.82647 5.68-5.81548 5.68-.176 0 .2749-.43094 1.00199-.95764zm26.36392-16.80669c.83044-.52562 1.51444-1.03324 1.52-1.12805.006-.0948-1.03388-.0677-2.30988.0602-1.276.12794-2.64126.24151-3.03391.25239-.51111.0142-.76883.26975-.90727.89978-.10635.484-.3971 1.42292-.6461 2.08648s-.45272 1.26561-.45272 1.33788c0 .1205 1.95483-1.05601 5.82988-3.50869zm-37.13266-2.07409c.79582-.52713 2.22451-1.78713 3.17486-2.8 1.70243-1.81441 1.71543-1.84302.88115-1.93962-.46572-.0539-1.7122.26621-2.76996.71141-4.25933 1.79273-6.07513 1.34116-11.30578-2.8116-5.71982-4.54114-10.4034-10.78335-12.7036-16.93118-.37634-1.00586-1.16663-2.80122-1.7562-3.98971-1.1152-2.24809-4.27046-7.37083-3.95075-6.41425.10049.30064.48254 1.80911.84901 3.35216 1.34422 5.65984 2.89693 9.03732 6.51948 14.18121 2.63054 3.73527 8.5879 10.59291 11.96466 13.77276 4.26869 4.01977 6.36261 4.6801 9.09713 2.86882zm-.045-4.96791c.97185-.50256 1.43413-1.02254 1.70132-1.91367.1782-.59431.0268-.64529-2.12083-.71419-4.63197-.1486-8.72191-2.10253-12.12666-5.79337-2.61792-2.8379-4.23926-5.07485-5.83641-8.05244-1.62005-3.0203-1.86245-2.84636-.70227.50395 1.09203 3.15354 1.44535 3.87415 3.1494 6.42338 2.53593 3.79371 8.26649 8.66007 11.65443 9.89689 1.32146.48241 2.924.35119 4.28102-.35055zm12.53032-1.00976c-.33816-.67315-.86962-2.01591-1.18104-2.98391-.31141-.968-.70879-1.94-.88305-2.16-.44247-.5586-.0891-.50004 1.31973.21868.66699.34027 1.82483 1.42943 2.57298 2.42035 2.68983 3.56266 4.33198 3.79376 12.37581 1.74169 6.86953-1.75249 11.22821-1.98834 17.52662-.94838 5.83406.9633 6.68247.82576 8.81497-1.42904 1.35743-1.43528 2.27142-2.86139 2.27142-3.54413 0-.37793-.63461-.0211-2.06584 1.16159-2.80799 2.3204-4.08654 2.49183-9.53659 1.27868-3.80491-.84695-9.99754-.59115-14.63757.60463-8.69522 2.24084-9.9712 2.17432-12.9861-.67705-1.85885-1.75802-3.72028-2.50702-6.23053-2.50702-1.08959 0-1.56973.14287-1.71018.50888-.24481.63798-.0736.91169 1.40623 2.24867.75756.68442 1.58076 1.96915 2.26013 3.5273.58771 1.34794 1.12015 2.29603 1.1832 2.10688.0631-.18916-.16203-.89468-.50019-1.56782zm49.12156-4.35426c3.91021-2.50517 5.96459-5.1507 7.50897-9.66965.64597-1.89015 1.59751-6.88 1.31197-6.88-.0804 0-.57401.30459-1.09682.67685-.5228.37227-1.98503 1.07758-3.2494 1.56736l-2.29884.89051.093 1.66834c.19144 3.43298-1.26811 5.57998-4.6075 6.77761-2.05891.73841-2.53874 1.30939-1.96376 2.33681.34283.61262.15488 4.39534-.27031 5.44011-.21004.5161-.0186.44997 1.00453-.34708.6952-.54157 2.30086-1.64896 3.56813-2.46086zm-66.64987-1.61312c-3.13787-1.69161-5.52625-3.52995-8.90674-6.85555-3.41673-3.36125-3.64716-3.24609-1.08264.54106 1.52981 2.25915 5.13593 5.88325 5.85512 5.88432.176.00026 1.04.32815 1.92.72863s2.176.73317 2.88.73931l1.28.0112zm28.77382-1.6173c6.89622-2.28339 8.52792-2.57763 14.29193-2.57722 4.65109.00033 5.70604.10386 8.85688.86918 3.59319.87277 5.7943 1.0495 6.98312.56067l.64-.26316-.64-.22379c-.352-.12308-1.75812-.71806-3.12471-1.32217-4.45883-1.97107-5.78756-2.20023-12.71529-2.19297-5.42713.006-6.55265.0966-8.64.69766-3.05009.87831-5.87793 1.89647-7.34257 2.64368-.62985.32132-2.22344.91192-3.54131 1.31244l-2.39612.72822.96.40968c1.55556.66385 3.20263.50521 6.66807-.64222zm-3.89028-2.45962c2.16821-.53922 5.20514-1.41072 6.74872-1.93666 7.43019-2.53171 15.32918-2.58063 22.47349-.13918 3.49893 1.19571 4.84568 1.29294 7.38911.53348 1.21599-.36309 2.5501-.89883 2.96469-1.19053 1.74907-1.23061 2.0921-4.38819.98774-9.09214-.64956-2.76679-1.6317-4.71302-3.62617-7.18568-.92787-1.15034-.95607-1.893-.0431-1.13531.41666.34579.48774.27787.48774-.46604 0-1.82234-1.80933-4.64755-2.97639-4.64755-.60752 0-3.37526 1.48051-6.93192 3.708-3.22504 2.0198-9.67378 3.54371-13.45169 3.17879-5.128-.49533-7.61203-1.32269-12.47787-4.15598-5.52962-3.21981-9.75805-3.57426-12.94254-1.08494l-1.2996 1.0159 1.27178-1.33788c2.09556-2.20448 5.37005-2.78358 8.54883-1.51186 1.13829.45539 2.15366.82797 2.25639.82797s1.22673.59957 2.49776 1.33238c4.00051 2.30647 6.47065 3.14505 10.32379 3.50481 6.85393.63995 11.78795-.48893 17.06261-3.90383 1.87438-1.21351 3.96013-2.44999 4.63498-2.74773 1.07073-.47241 1.20282-.64607 1.03706-1.36349-.27329-1.18282-1.05275-1.6809-2.43319-1.55482-1.40174.12802-1.52592-.10475-.38238-.71675.64081-.34295 1.02645-.35875 1.78332-.0731.53114.20048 1.16068.28969 1.39898.19824.31115-.1194.49748.26932.66102 1.37899.12526.8499.34266 1.83326.48311 2.18526.4864 1.21896.33386-.84372-.21392-2.89277-.36692-1.37252-.46219-2.69649-.3398-4.72244.15665-2.59297.25059-2.9069 1.1899-3.97673 1.54382-1.75831 1.97913-3.11095 2.14678-6.67066.11326-2.40494.0189-3.67959-.37183-5.02371-.28797-.99061-.6297-1.86706-.75939-1.94766s-.19575 1.60407-.14681 3.74372c.094 4.10819-.28319 5.61419-1.60898 6.42465-.90386.55253-1.5543-.11347-3.1322-3.20717-1.02783-2.01518-1.71288-2.97262-2.34425-3.27631-1.18203-.56856-1.39033-.28016-.56004.77539.37207.473.67072 1.02058.66367 1.21685-.007.19626-.22246-.0293-.4787-.50118-.45982-.84684-1.60837-1.46876-1.99622-1.08091-.10972.10973-.002.87887.23949 1.70922.83379 2.86748.78507 4.22097-.22117 6.14386-1.1486 2.19494-2.98401 3.62346-5.78406 4.50179-2.43905.7651-6.32821.90828-8.83295.3252-6.71365-1.56289-12.17702-7.23924-12.59538-13.0864-.0869-1.21488-.0182-2.45879.15275-2.76424.23355-.41732.35749.002.49868 1.68579.23217 2.76931 1.28483 4.96519 3.50612 7.31388 2.48397 2.62643 6.38323 4.2932 7.85664 3.35839.59594-.3781 2.20829-4.81399 3.09994-8.52856 2.95134-12.29519 4.99874-37.01237 3.73744-45.12-.55934-3.59538-1.56967-6.88-2.11627-6.88-.48555 0-.65119.51078-2.75 8.48-4.38917 16.66581-7.46302 25.62767-10.66251 31.08677-1.48228 2.52912-3.71705 4.59323-4.973 4.59323-1.34942 0-2.39732-.46532-3.37832-1.50016-3.21824-3.39487-3.1413-8.67813.15853-10.88558 2.00217-1.33936 3.81746-3.05035 3.03181-2.85758-.352.0864-1.432.24926-2.4.36198-2.47272.28795-4.59884 1.02152-5.57043 1.92196-.97872.90705-1.08023.41438-.20901-1.01442.40829-.6696 1.31975-1.34864 2.68455-2 1.7399-.83038 2.44576-.9862 4.46749-.9862 2.32534 0 2.43094-.034 3.34697-1.07729 2.46398-2.80631 8.33024-14.29444 12.55741-24.59168.55746-1.35793 1.29194-2.82288 1.63219-3.25543 1.145-1.45564 3.75625-1.38128 4.7025.13391.75907 1.21546 1.95087 4.77873 2.58583 7.73114.59307 2.75767 1.27847 8.09559 1.87682 14.61691l.24568 2.67756 1.76.5476c2.7914.86851 3.86465 1.53995 6.00697 3.75806 2.01751 2.08889 2.95303 3.48386 2.95303 4.40333 0 .27274.1624.49589.36089.49589.59154 0 .0459-2.40624-1.028-4.53369-.53447-1.05878-1.79101-3.00505-2.79233-4.32506-1.00131-1.32001-2.14498-2.92679-2.54149-3.57063-.86012-1.39664-2.0037-4.89733-1.98758-6.08433.009-.64335.26457-.30714 1.06687 1.40207.99475 2.1192 2.8405 4.63164 3.40261 4.63164.14007 0-.15543-1.58714-.65667-3.52699-.80455-3.11373-1.23091-5.56352-1.75308-10.07301l-.14822-1.28.7533.90857c1.00278 1.20947 1.15029.72678.83501-2.73236-.3898-4.27659-1.68454-8.01887-3.70711-10.71486-.61811-.82392-.7642-1.40644-.7642-3.04723 0-1.98172-.0253-2.04222-1.09607-2.61885-1.64411-.88541-8.88179-8.079175-10.35116-10.288354-1.31514-1.977287-1.98782-3.783812-1.99099-5.346915-.001-.647869-.16076-.88-.60446-.88-1.14501 0-1.32886 2.598192-.33836 4.781614.96422 2.125473 2.42976 3.817339 8.25404 9.528745 5.63521 5.52599 6.8572 7.39033 1.91818 2.92649-5.84863-5.285949-8.34651-7.830306-9.69642-9.876849-1.72843-2.62039-2.22408-4.140833-1.99111-6.107882.15929-1.344977.1016-1.565408-.456-1.742385-.3511-.111434-.81146-.06229-1.02301.109211-.37464.303706-2.88485-2.807842-5.37204-6.658944-2.99756-4.641353-7.30444-9.426655-10.24158-11.379261-4.69858-3.123612-7.33402-3.648665-14.5382-2.896422-5.08321.530776-7.36968 1.069463-9.83221 2.31645-2.78865 1.412125-8.23763 7.123116-10.75685 11.274082-.5724.943167-.99642 1.743139-.94225 1.777717 1.16004.740513 3.94539 3.430006 4.31292 4.164493.27052.540618 1.47302 1.918941 2.67221 3.062941 1.58718 1.514127 2.27414 2.42823 2.52507 3.36 1.15591 4.292158-.67879 9.692079-4.76876 14.035429-2.10135 2.23155-5.76296 5.26569-5.76296 4.7754 0-.14662 1.38305-1.63104 3.07344-3.2987 3.42529-3.37924 4.53326-4.83713 5.89648-7.75867 1.78588-3.827381 1.57122-7.59099-.55419-9.716403-.97912-.979116-2.66979-1.556467-2.16471-.739231.43117.69765.14556 5.375567-.44105 7.223698-.86976 2.740203-2.90477 6.008276-5.17118 8.304486-1.09233 1.1067-1.9214 2.20158-1.84238 2.43308.19735.57812 4.58793-3.86938 6.21848-6.29909 1.70142-2.535313 2.66511-5.201001 2.66511-7.372003 0-1.087435.13683-1.747996.36209-1.747996.74773 0 .12547 4.478779-.94904 6.830827-1.81475 3.972372-5.5899 8.536662-8.14983 9.853422-.95156.48946-1.17393.76088-1.02021 1.24522.12148.38275-.15788 1.26519-.73129 2.31002-1.56535 2.85228-2.56169 5.71448-2.97992 8.56051-.37647 2.5618-.41692 2.65492-.69536 1.60109-.16259-.6154-.24112-2.2714-.17449-3.68.0996-2.10448.30572-2.92596 1.15639-4.60763.56939-1.12559.97699-2.1048.90577-2.17602-.20515-.20515-2.10021 3.01824-2.76293 4.69959-.33127.84042-.82812 2.71844-1.10411 4.17338-.276 1.45493-.84596 3.59937-1.26658 4.76543-2.21995 6.15422-2.58153 16.02625-.78562 21.44906.75727 2.2866.73939 2.25394 3.7757 6.8951 1.15141 1.76 2.5613 4.136 3.13308 5.28.99001 1.98077 1.03016 2.01894.84176.8-.10882-.704-.7913-3.296-1.51663-5.76-1.31322-4.46113-1.31865-4.50156-1.28969-9.6.0226-3.98448.18644-5.86113.73863-8.46171.39026-1.83794.84079-3.56594 1.00119-3.84.37673-.64369.38806-.12243.0249 1.14397-.4905 1.71029.11071 9.34708.92957 11.80778l.7196 2.1624.46513-1.08622c.25582-.59742.73725-2.23822 1.06984-3.64622l.60471-2.56-.17601 6.4-.17601 6.4 1.01642 2.88 1.01642 2.88.0809 10.08c.0902 11.24181.52563 14.99555 2.415 20.82027 2.51528 7.75432 7.66402 15.34005 13.42859 19.78459 3.19785 2.46558 8.65207 5.83889 8.65207 5.35111 0-.0572-.70685-1.45665-1.57078-3.10996-.86393-1.6533-1.79814-3.87001-2.07603-4.92601-.27788-1.056-.79083-2.928-1.13989-4.16-1.21459-4.28684-.48887-3.03946 1.42751 2.45362 1.11714 3.20218 1.98466 5.08339 2.85285 6.18638.46547.59137.49043.42114.32846-2.24-.32018-5.26053-1.9665-9.3916-4.73457-11.88033-.86707-.77957-1.49419-1.49969-1.39362-1.60026.10058-.10058.92337.22016 1.82843.71276 1.96351 1.06868 2.75828 2.31867 3.99852 6.28879l.87501 2.80096.89811-1.89906c.82919-1.75331.89345-2.16476.83739-5.36096-.0673-3.83492-.41461-4.83253-2.58842-7.43441-1.28181-1.53422-1.39673-1.79599-.58297-1.32785 1.06088.6103 1.91214 1.46528 3.23102 3.24516l1.32252 1.78479-.18889 2.53321c-.10388 1.39326-.41133 2.96337-.68321 3.48914l-.49434.95593 1.17077-1.02795c1.65476-1.4529 2.90174-2.02754 4.83209-2.22677 2.46359-.25426 5.61005 1.04443 5.61005 2.31553 0 .28696-.26716.17508-.7609-.31866-1.20021-1.20022-2.97569-1.59298-5.32795-1.17864-2.40944.42441-3.18199.89488-4.41698 2.68988-1.22041 1.77381-1.65203 3.39017-1.64457 6.15874.0108 4.01955 1.00331 6.87918 2.61993 7.54881 1.10463.45755 6.12323 1.4827 7.50826 1.53371.55978.0206 2.79178-.40369 4.96-.94291zm-.0578-.42126c0-.0872.64656-.62291 1.43681-1.19042.79025-.56752 1.96168-1.79391 2.60316-2.72532 1.09363-1.5879 1.15253-1.79758.94482-3.36339-.26209-1.97572-.48306-2.4287-2.23252-4.57656-.73037-.89671-1.6663-2.42064-2.07984-3.38651-1.089-2.5435-1.82152-3.43984-3.50052-4.28336-3.00482-1.5096-6.30823-1.34024-7.86151.40305-.90608 1.01691-1.27599.82811-.4819-.24596 1.1867-1.6051 2.43079-2.06206 5.12058-1.88084 1.97803.13327 2.81962.38757 5.07869 1.53458 3.65773 1.85715 5.51872 3.24709 6.87476 5.13459.6256.8708 1.13747 1.68733 1.13747 1.8145s-.91691-.72248-2.03756-1.88811c-1.91024-1.98691-4.54222-4.03594-4.81871-3.75143-.29877.30744 1.79075 4.17392 3.42609 6.3397 2.88653 3.82281 3.10419 6.63007.71685 9.24527-.94891 1.03947-4.32667 3.24116-4.32667 2.82021zm32.4761-1.91149c-1.68757-.78586-3.05517-2.28847-3.88036-4.26341-.66942-1.60217-.34747-3.43627.99433-5.66456.59526-.98853 1.45508-2.61161 1.91072-3.60684.45563-.99522.89444-1.74348.97514-1.66278.29772.29772-.58387 2.73464-1.77651 4.91073-1.52324 2.77928-1.84098 4.4721-1.12328 5.98453.59355 1.25082 2.30404 2.99255 4.14851 4.22429 1.54535 1.03199.88819 1.07306-1.24855.078zm-34.7161-1.02828c.44-.50033.98-1.10648 1.2-1.34699.68051-.74397.44912-1.03159-.82991-1.03159-.67645 0-2.08045-.2976-3.12-.66134-1.17437-.41091-2.3445-.6042-3.0901-.51045-.66.083-1.2.0374-1.2-.10133s-.28626-.32709-.63614-.41859c-.72655-.19-1.27347-1.39958-1.30635-2.88912-.0195-.88438-.0625-.93453-.32491-.37917-.23844.50458-.26271.43687-.11469-.32.36552-1.86905 2.79184-3.68 4.93049-3.68.74645 0 1.48783.47618 3.2286 2.07369 1.24281 1.14052 2.77241 2.317 3.39911 2.61438 1.40475.6666 2.42355 2.21284 2.1822 3.31193-.20485.93284-1.77767 2.39883-3.73805 3.48414l-1.38025.76414zm35.59712-2.45858c-1.62282-1.73238-1.56277-2.72286.30994-5.11222.51394-.65573 1.28607-2.08949 1.71584-3.18614.42978-1.09666.89978-2.11229 1.04445-2.25696s.63728.0314 1.09469.39115c1.52804 1.20196 2.10378 4.58561.98999 5.8182-.74499.82445-3.39916 2.18597-4.26137 2.18597-.73421 0-.74024.0284-.3567 1.68.15327.66.24693 1.2.20815 1.2-.0388 0-.37403-.324-.74499-.72zm-44.82511-2.0137c-.20459-.44903-.36566-1.06164-.35794-1.36135.008-.29972.21724.0255.46558.7228.51617 1.44919.44744 1.85683-.10764.63855zm20.51329-.26271c1.02216-.79899 8.0767-1.12368 13.91473-.64043 4.20562.34812 2.42359.59675-4.32.60273-3.652.003-7.432.11247-8.4.24273-1.53033.20592-1.68624.17917-1.19473-.20503zm4.71473-2.83204c-3.35695-.22826-6.48017-.92646-5.85967-1.30995.1807-.11168.81705-.0583 1.41411.11871 1.59261.47205 10.95741.47657 13.39196.006 3.14655-.6076 3.61346-.95933 4.79033-3.60865 1.54805-3.48489 2.88752-4.68913 6.18327-5.55901 2.12534-.56096 1.91027.022-.23858.6467-2.29811.66808-3.83573 2.06179-5.00501 4.53656-.52177 1.10433-1.37117 2.36338-1.88755 2.79789-2.23827 1.88338-6.99444 2.76526-12.78886 2.37128zm-1.44-3.65039c-1.14627-.29617-3.43494-1.43289-3.25244-1.61539.0978-.0978.94166.006 1.87516.23087 2.23675.53869 7.87129.54921 10.55895.0197 2.8882-.56899 3.32595-.32319 1.02803.57725-1.51641.59421-2.64826.76147-5.7297.8467-2.112.0584-4.128.0318-4.48-.0592zm.63485-8.5833c-2.93864-.45688-4.68446-.98212-6.06718-1.82535-1.09703-.669-.95395-.76019.37149-.23677 1.5338.6057 7.4703 1.51773 9.02465 1.38647 4.26414-.36009 5.68983-.56848 7.5723-1.10682 1.13514-.32462 2.06389-.52028 2.06389-.43481 0 .4119-3.23281 1.50278-6.10144 2.05886-3.61941.70162-3.40217.69661-6.86371.15842zm-.31485-2.60607c-3.13206-.55152-4.72069-1.12922-7.65538-2.78385-2.15291-1.21385-5.64326-3.74794-5.16226-3.74794.12429 0 1.24361.59433 2.48739 1.32074 5.13889 3.00128 9.05685 4.16701 13.94819 4.1501 3.45886-.0119 6.11054-.50872 8.7863-1.64604 4.5625-1.93925 6.32858-3.9868 6.90213-8.00215l.29463-2.06265.0395 2.28346c.0333 1.92516-.10095 2.55231-.8556 3.99686-1.62537 3.11132-6.76129 5.87726-12.35878 6.6558-2.97181.41334-3.17505.40814-6.42612-.16433zm-37.44596-3.13773c-1.05659-.46039-2.61328-2.10024-3.84313-4.04844-.7973-1.26302-2.01678-4.8149-3.45585-10.06562-.43413-1.584-.8913-3.168-1.01595-3.52-.12842-.36267.0613-.22672.4379.31375.36549.52455.75352 1.38855.86228 1.92.10876.53144.57846 2.11825 1.04377 3.52625.67418 2.04004 1.14818 2.86416 2.33374 4.05751 1.91402 1.92659 3.38175 2.36818 5.64114 1.69722 1.34676-.39995 1.96216-.86501 3.62188-2.73709 2.06538-2.32964 3.4875-3.27801 5.42017-3.61457 1.01362-.17651.96455-.12183-.51655.57567-1.11502.5251-2.33874 1.55119-3.84 3.21984-1.21189 1.34703-2.56345 2.63706-3.00345 2.86674-2.48069 1.29492-5.05983.82432-7.1974-1.31325-.76564-.76564-1.46383-1.39207-1.55154-1.39207-.0877 0-.011.54.17057 1.2.81049 2.94691 2.67826 5.24471 4.78439 5.88594 1.40006.42626 4.03549-.25729 6.37153-1.65259 2.57449-1.53772 3.00534-1.44358 1.18794.25956-3.28999 3.08316-5.19492 3.80438-7.45144 2.82115zm37.67255-1.33199c-7.12463-1.91773-11.83209-6.55152-13.62305-13.40987-.5821-2.22908-.42826-2.72939.28944-.94133 1.46656 3.65378 2.59537 5.50866 4.46022 7.32913 4.49714 4.39013 11.34215 6.24325 17.2868 4.67998 3.3005-.86794 4.45243-1.43889 6.19881-3.07241 2.18511-2.04392 3.14288-4.56253 3.59271-9.44757.0949-1.0312.53501 1.5454.57385 3.36.14938 6.97806-5.99373 12.04868-14.51261 11.97894-1.41502-.0116-3.3348-.22617-4.26617-.47687zm-39.47833-8.41355c-1.57526-1.01225-2.74146-2.99658-3.94304-6.70925-.92452-2.85658-.35114-2.16238 1.07547 1.30209.74254 1.80325 1.52315 3.50125 1.73469 3.77333.78708 1.01233 1.99771 1.58531 3.34953 1.58531 1.20405 0 1.59579-.1962 3.03492-1.52.90883-.836 2.01194-1.93558 2.45135-2.44351 1.11373-1.28739 2.5359-1.79649 5.01852-1.79649 1.60689 0 2.58698.20496 3.98918.83423 1.0224.45883 1.93122 1.02266 2.01959 1.25295.10057.26209-.51993.10486-1.6589-.42035-3.94729-1.82023-8.80746-.70488-10.40557 2.38794-.71275 1.37939-2.24064 2.40165-3.84323 2.57138-1.07887.11426-1.61315-.0405-2.82251-.81763zm-.52882-3.26609c-1.13135-.45374-.54928-.91333.77768-.61405 1.4147.31906 1.84539.17899 3.48287-1.13272 1.37575-1.10204 4.61234-2.84999 4.84549-2.61684.078.078-.33231.42775-.91182.77718-.57952.34944-1.89004 1.37529-2.91229 2.27967-1.62553 1.43812-2.02684 1.64179-3.2 1.62405-.73776-.0112-1.67463-.15394-2.08193-.31729zm-.32008-3.70638c-.66237-.61201-1.05767-1.34088-1.19101-2.19605l-.19959-1.28.82978 1.33656c.54662.88047 1.19387 1.45672 1.89677 1.6887 1.20952.39917 1.85413.23809 3.28951-.82204.55265-.40817 1.61482-.95229 2.36037-1.20915 1.27546-.43944 1.41909-.42588 2.43121.22945 1.13269.7334 1.47697 1.40355.52359 1.01919-.308-.12417-1.10604-.30335-1.77343-.39817-1.02988-.14633-1.47532.008-2.94464 1.01992-.97234.66967-2.27913 1.26581-2.98117 1.35998-1.05862.14199-1.40175.0274-2.24139-.74839zm12.01314-1.39619c-1.46628-1.15337-3.81186-4.56475-5.23704-7.61667-1.29134-2.7653-1.49235-3.02203-2.82908-3.61333-1.19489-.52856-1.64809-.58021-2.67186-.30454-1.48374.39953-2.04206.9724-2.90117 2.97677-.60177 1.40396-1.97352 2.56441-2.4583 2.07963-.24315-.24314.64826-1.93671 1.30723-2.48362.28847-.2394.80244-.9801 1.14215-1.64599.68609-1.34485 1.18616-1.68879 2.90648-1.99903 2.63465-.47514 5.35684 1.70092 6.69054 5.34827 1.1737 3.20977 1.87414 4.39643 3.57008 6.04833 1.64798 1.60519 1.95036 2.366.48097 1.21018zm-11.70976-.59711c-.32849-.32849-.69902-1.27586-.8234-2.10526-.18702-1.24719-.31894-1.46857-.76274-1.28002-.76731.326-1.72164.23507-1.98374-.18902-.1236-.19998-.49656-.33462-.8288-.29918-1.60407.17109-1.98425-.12052-.44407-.34061 1.44869-.20701 1.90151-.43298 2.56-1.27749 2.0098-2.57755 2.07554-2.62889 3.41096-2.66391 1.88106-.0493 3.26645 1.14908 5.00477 4.32928l1.43865 2.63196-1.64719.60094c-3.8598 1.40817-4.99581 1.52194-5.92444.59331zm2.9744-2.1456c.27657-.27658.50285-.69829.50285-.93715 0-.62497-.90559-1.44-1.6-1.44-.6944 0-1.6.81503-1.6 1.44s.9056 1.44 1.6 1.44c.32686 0 .82058-.22628 1.09715-.50285zm1.56095-3.38142c-.66062-1.14764-2.17634-2.19277-3.18264-2.19453-1.00851-.002-2.29605 1.13094-1.82767 1.60788.20498.20872.66536.28005 1.04.16115.71297-.22629.92837-.81023.29888-.81023-.20533 0-.30045-.0729-.21136-.16197.1966-.1966 3.11866 1.31108 3.77327 1.94687.71497.69443.74338.55199.10952-.54917zm8.01298.28427c-.86997-.924-2.25773-2.92409-3.08391-4.44464-.82617-1.52055-2.00538-3.20649-2.62045-3.74653-1.29817-1.13981-3.17772-1.73463-4.5892-1.45233-1.48625.29725-3.52316 2.22235-4.36462 4.12503-.846 1.91297-1.80441 2.71847-3.2345 2.71847-1.42169 0-2.13057-.9294-2.25518-2.95676l-.10346-1.68324.34386 1.44c.40338 1.68926.66611 1.90855 2.29438 1.9151 1.1424.005 1.25865-.087 1.87309-1.47606.91701-2.07304 3.62457-4.76896 5.22891-5.20644 1.83502-.50037 2.65845-.43949 4.2092.31122 1.63895.7934 3.05376 2.63344 4.88406 6.35199.72979 1.4827 1.82612 3.3907 2.43629 4.24 1.46029 2.03261.96039 1.96595-1.01847-.13581zm-24.72439-8.45606c-.47738-4.01424-.31413-5.95651.78872-9.38394.42474-1.32.90457-2.976 1.06628-3.68.26471-1.1524.29659-1.1843.31974-.32.0141.528-.11308 1.896-.28271 3.04s-.4555 4.312-.63527 7.04c-.46177 7.00722-.73191 7.71739-1.25676 3.30394zm10.42462-4.93449c1.54337-2.69098 6.55722-5.12906 10.40122-5.05779 1.63297.0303 1.59164.0496-.94713.44326-3.32984.5163-6.15431 1.87333-8.37253 4.02262-1.44414 1.39927-1.59055 1.4794-1.08156.59191zm-8.48527-27.38574c1.09296-1.75363 7.92549-11.7388 9.67949-14.14577 1.07496-1.47513 2.87463-3.63513 3.99927-4.8 2.00086-2.07244 2.02027-2.08356.90361-.51794-.62766.88-2.33463 3.328-3.79327 5.44-3.58865 5.19606-8.57482 11.87692-10.03079 13.44-.65575.704-.99699.96667-.75831.58371zm-5.48604-3.89322c0-.31074 3.92161-4.10335 6.34707-6.13828.93889-.78771 3.53089-3.57762 5.76-6.19979 4.94542-5.817446 4.51366-5.37817 6.83701-6.955929 8.08859-5.492857 18.87867-7.27327 28.77145-4.74742 2.73392.698032 6.05218 2.216589 8.77203 4.014404 1.83488 1.212848 8.58237 7.734465 9.74267 9.416525.49791.72182-.18782.20841-1.92882-1.44412-3.77352-3.58175-8.25294-7.467345-9.5814-8.311231-1.804-1.14596-5.5988-2.710643-7.40469-3.053123-3.01629-.572027-10.98302-.409441-15.11767.308525-5.44125.944854-7.41438 1.517713-10.18654 2.957464-3.13615 1.628793-4.77454 3.080885-8.02107 7.108985-1.43336 1.77843-3.40349 4.08191-4.37807 5.11885-1.86999 1.98965-9.61197 8.37297-9.61197 7.92514zm17.66213-7.36953c5.75146-9.23933 9.63128-12.482891 16.67088-13.93696 6.3049-1.302313 13.20933.203643 19.427 4.23731 2.97751 1.93164 11.50004 10.18028 13.43204 13.00038l1.08359 1.58169-2.05782-2.07501c-2.93023-2.95471-8.76325-8.1523-11.01303-9.81329-4.17269-3.08066-10.01293-5.195079-14.34938-5.195079-2.48984 0-6.89728.831049-9.4099 1.774289-4.87107 1.82862-8.30452 4.61288-12.47481 10.1161-4.28537 5.65509-4.69622 5.7526-1.30857.31057zm-17.14963 3.02974c.0997-.25977.5176-.69269.92871-.96206.78452-.51404 5.67834-6.0259 7.40954-8.34529 2.09361-2.80494 3.62925-6.689179 3.62925-9.179803 0-.904713-.32178-2.348186-.7686-3.447814-.88595-2.18033-.39432-2.330308.7897-.24091.6287 1.109443.75621 1.765765.72757 3.745178-.0296 2.045636-.22201 2.832839-1.30325 5.331489-1.51375 3.49813-3.61255 6.55127-6.46733 9.40807-2.23094 2.23251-5.25073 4.48633-4.94559 3.69114zm13.06867-23.7325c-.59761-.482769-.58969-.495152.20869-.32649.45641.09642 1.82441-.09995 3.04-.436372 8.08601-2.237894 21.21176-3.553472 27.33015-2.739266 2.51893.335207 5.27176.88741 5.52249 1.107782.13337.117221-3.03463.244332-7.04.282468-9.08628.08651-16.92409.784527-23.98869 2.136369-3.1724.607053-4.2976.601621-5.07264-.02449zm-.007-2.990102c.9037-.998581 5.75505-3.365201 9.46542-4.617491 5.85328-1.975542 10.70655-2.216596 16.96001-.842374 3.53975.777876 8.98884 2.588159 7.2 2.391967-3.77573-.414105-14.32132-.535517-16.96001-.195262-5.67929.732337-12.20478 2.050368-14.7035 2.96984-2.26886.834892-2.4807.866564-1.96192.29332zm-9.43483 113.579582c-.69861-1.05177-1.86173-3.17577-2.58471-4.72-4.08291-8.72074-7.38529-16.05125-9.91444-22.00768-1.56935-3.696-3.37579-7.8-4.01431-9.12-3.81092-7.87817-6.96616-21.14993-7.11322-29.92-.13768-8.21096 1.26329-14.1156 6.31217-26.60364l.66452-1.64363-2.87944-1.45889-2.87944-1.45889-.33995.86252c-4.10094 10.40517-5.76738 17.34852-6.19753 25.82253-.24464 4.81944.41663 12.75193 1.47437 17.68628 1.23369 5.75518 4.1004 14.73871 6.20142 19.43372.3938.88 1.11295 2.536 1.59811 3.68 2.17117 5.11958 9.34183 17.86514 12.7823 22.72 1.84745 2.60696 7.36546 8.64 7.9024 8.64.14187 0-.31364-.86054-1.01225-1.91232zm83.03642-.34524c.8478-.53766 2.496-1.74503 3.66265-2.68303 3.61602-2.90733 5.57861-3.64962 6.77846-2.56377.45484.41162.49668.7235.24685 1.84-.16546.7394-.43657 1.48116-.60248 1.64836-.1659.1672-.30164.51957-.30164.78304 0 .26348.43503-.1125.96673-.83551 2.05461-2.79384 2.48634-6.8744 1.11327-10.52232-1.00226-2.66275-.99987-3.67635.0189-8.00767 3.30233-14.04037-1.4258-35.39655-11.55063-52.17235-2.65826-4.40446-11.83105-17.5548-12.81418-18.37072-.60331-.5007-.57588-.3113.21938 1.515 1.08298 2.48703 1.81308 6.04194 2.17857 10.60758.42097 5.25858 2.9505 18.42531 4.24991 22.12165 1.52494 4.33791 2.35664 7.48337 3.43137 12.9773.55086 2.816 1.24521 6.128 1.543 7.36.38587 1.59642.54064 3.6191.53868 7.04-.003 4.632-.0613 5.0576-1.67652 12.16-.92057 4.048-1.95832 8.21596-2.30611 9.26214-.82884 2.49323-.79331 2.98163.32434 4.45846.51637.68233 1.17194 1.94233 1.45681 2.8s.62219 1.5594.74958 1.5594c.1274 0 .92529-.4399 1.7731-.97756zm-89.09429-19.18543c-.60626-1.80305-.84395-3.18229-1.92629-11.17778-.89083-6.58076-1.27606-7.71868-4.93575-14.57923-1.6309-3.05733-2.26033-4.70864-3.45632-9.06756-.953-3.47332-1.02428-4.08788-1.02688-8.85244-.003-5.63491.5898-8.92538 2.41732-13.41611.49759-1.22273.9952-2.88032 1.1058-3.68352.44117-3.20395 1.96454-7.00144 3.47412-8.66037 1.3405-1.47268 1.78653-2.37363 1.78653-3.60785v-1.22544l-2.48.0599c-1.364.0329-2.79812.17761-3.18693.3215-.86378.31968-1.89443 2.30296-3.58671 6.90192-3.37721 9.17793-4.16111 17.13897-2.87819 29.23 1.1703 11.02971 2.7314 15.7382 8.90092 26.84652 1.40715 2.53359 2.94611 5.55759 3.41992 6.72 2.28547 5.60702 3.67324 8.05783 2.37287 4.19049zm81.44103-8.75653c.58734-.8964.96811-3.63554.67031-4.82205l-.20959-.83508-.77242.88833c-.94849 1.09081-1.43192.87517-3.03665-1.35454l-1.10545-1.53597 1.39346 1.00941c.7664.55518 1.62881 1.00942 1.91645 1.00942.73177 0 1.62099-1.64048 1.62099-2.99049 0-1.58621-.48159-1.70593-1.17269-.29151-.32651.66823-.80047 1.17841-1.06731 1.14888-.54835-.0607-2.46054-.70468-3.25271-1.09544-.34484-.1701-.66791-.0999-.91604.19911-.30125.36297-.28996.49152.0527.60031 1.36988.43491 1.4107.45793.85837.48388-.74526.035-.30708 1.48028 1.10618 3.64855.5939.91119 1.27308 2.16071 1.50929 2.77671.81297 2.12018 1.54489 2.47333 2.4051 1.16048zm-5.67362-6.50915c-.24554-.50139-.67554-.87188-.98289-.84688-.70205.0571-.70672-1.16889-.0112-2.92445.32479-.81974.57864-2.84253.70596-5.62549.18903-4.13191.24336-4.40387 1.10522-5.53328.54706-.71688 1.27655-1.26182 1.84-1.37451 1.89513-.37903.80113-2.34672-1.30472-2.34672-1.48162 0-2.86264 1.03917-3.68549 2.77321-.48544 1.02298-.53023 1.73296-.33542 5.3167.15829 2.91185.12337 4.07335-.11797 3.92419-.40309-.24912-.43045.73293-.13601 4.88112l.20681 2.91354 1.47319.0956c.81026.0526 1.5195-.007 1.57609-.13305.0566-.12577-.0935-.62977-.33361-1.12zm1.30938-7.49656c.58703-2.67961 1.79807-5.50579 2.78007-6.48778.48511-.48512.48495-.58318-.002-1.32669l-.52604-.80285-.95007.6765c-1.48791 1.05949-1.92205 2.26993-2.21705 6.18152-.17095 2.26681-.51385 4.21884-.93638 5.33053-.92494 2.43358-.82225 2.68452.30643.74877.52969-.90846 1.2217-2.84307 1.54526-4.32zm3.40251 2.28393c.47955-.52989.51715-.78005.21646-1.44-.20015-.43928-.57271-.7987-.82792-.7987-.58505 0-1.46971.86678-1.46971 1.44 0 .46713.84671 1.44 1.25326 1.44.13615 0 .50871-.28858.82791-.6413zm-34.41768-3.7359c3.01264-3.42254 7.40559-13.82477 10.44908-24.7428.61327-2.2 1.33085-4.55797 1.59462-5.23994s.42039-1.29914.34803-1.3715c-.0724-.0724-.46221.70162-.86634 1.71994-1.56145 3.93452-5.76249 12.22651-7.627 15.05412-2.39118 3.62633-4.05759 5.46697-6.29254 6.95045-2.94576 1.95528-3.7374 3.55801-3.02108 6.11644.51866 1.8525 1.69115 3.01049 3.04818 3.01049.84828 0 1.3015-.28667 2.36705-1.4972zm32.73023-.7428c.65946-.61438 1.33301-.78407 2.5905-.65263.92665.0969.10134-1.14639-.93341-1.4061-1.00573-.25242-1.85264.38985-2.33369 1.7698-.38219 1.09635-.25045 1.15261.6766.28893zm-6.79372-6.10234c0-.69644 1.94679-3.14202 3.03808-3.81647.90729-.56074 1.39177-.6534 2.48449-.47517l1.35743.22139-1.07048-1.12038c-1.9213-2.01088-7.56511-4.09498-7.54736-2.78703.0301 2.2204.55702 7.26741.80757 7.73557.34099.63714.93027.7905.93027.24209zm-73.00965-46.47268 2.03035-1.02498-1.43175-.20795c-4.87731-.70839-9.14746-5.358648-10.22088-11.130675-.28529-1.534026-.27531-2.522024.0447-4.42642l.41195-2.451607-.91235-.734206c-.50141-.403813-1.99197-1.159595-3.31197-1.679517l-2.4-.945312 1.64092-.01216c1.78481-.01322 3.30443.500561 4.67908 1.582001 1.28806 1.013311 1.17402.07725-.2524-2.071742-1.15967-1.747109-3.56492-4.012479-7.1076-6.694226-1.1-.832682-2-1.656965-2-1.831738s-.432-.681273-.96-1.125556c-1.30755-1.10023-1.20694-1.502665.22597-.903954.65229.272542 3.05067.712846 5.32975.978455 5.06769.590599 6.84336 1.336067 9.12254 3.829852 2.26417 2.477363 2.87433 4.332255 3.24464 9.863804.16647 2.486521.52554 5.456948.79794 6.600948.58925 2.47463 3.27445 8 3.88782 8 .42911 0 .55024.45686.49057 1.850253-.0172.40164.10644.64514.27475.54111.38892-.24036.39211-1.18949.007-2.136306-.78726-1.936488-2.33417-7.817672-2.88673-10.975057-1.37798-7.873879-1.63457-9.158249-2.12304-10.626926-1.20259-3.615797-3.57333-6.237435-7.07716-7.826149-1.64701-.746787-2.80722-1.0065-5.49123-1.229205-4.98504-.413634-6.43947-1.027065-8.07649-3.406392-.5265-.76523-1.07687-1.391328-1.22307-1.391328-.50596 0-1.06542 1.937107-.90496 3.133422.0886.66074.59515 2.134022 1.12562 3.273961 2.19475 4.716341 2.50849 6.579567 2.00436 11.903212-.88753 9.372283 1.74168 15.701346 8.27956 19.930688 4.54112 2.93763 8.74876 3.37995 12.78233 1.3437zm73.32965.12081c0-.16182-.684-1.06182-1.52-2s-1.79791-2.209789-2.13757-2.825789-1.80672-2.441868-3.26014-4.057485c-2.65147-2.94738-3.34613-3.967174-4.32034-6.342515-.76256-1.859304-1.41215-1.684582-1.36047.36593.0589 2.338314 1.30617 4.422697 4.74981 7.937889 1.58879 1.621806 3.64765 3.7594 4.57524 4.75022 2.03528 2.17398 3.27347 2.99545 3.27347 2.17175zm-66.56944-5.069261c1.33883-3.150689 1.65478-5.014158 1.2628-7.448089-.51613-3.2049-1.86162-5.336684-4.86835-7.713363-2.10688-1.665397-2.61022-1.63857-2.34389.124924.11297.748.42216 2.944.68709 4.88.55313 4.041999 1.07768 5.842451 2.59225 8.897602.59374 1.197681 1.07953 2.630477 1.07953 3.183997 0 1.36701.39458.88945 1.59057-1.925071zm77.82821-.322193c5.35703-2.63883 8.7143-8.859803 9.10657-16.874335.15438-3.154275.0859-3.812466-.65945-6.334907-.45745-1.548199-1.27861-3.700168-1.82479-4.782152-1.28925-2.553981-1.52792-4.974272-.76754-7.783342.53957-1.993323.53938-2.110707-.004-2.711559-.80158-.885745-1.41215-.789512-3.21285.506385-.86698.623934-2.75701 1.85318-4.20006 2.731658-2.62882 1.600322-6.81626 5.233247-6.81626 5.913623 0 .199302-.28493.690889-.63317 1.092415-.66293.764364-2.0334 4.875096-2.57182 7.714193-.44662 2.355007-.38019 6.736631.14758 9.733686.29726 1.688038.36975 3.241221.21284 4.56-.13088 1.1-.13796 2-.0157 2 .36514 0 1.55142-3.559468 1.75968-5.28.12855-1.061981-.0305-2.69294-.47286-4.850267-.78868-3.845907-.84172-6.342667-.18806-8.852261.92619-3.555885 2.78383-6.283071 5.92743-8.702018 1.8064-1.389988 5.7541-3.498621 5.7541-3.073504 0 .124856-1.08223 1.660495-2.40495 3.41253-2.505 3.318056-4.1672 6.288849-4.51277 8.06552-.28479 1.464181.19128 1.2956 1.61561-.572101.67617-.886656 1.49763-1.755652 1.82546-1.931102.56633-.303088.56325-.234645-.0617 1.372101-.36175.930106-1.00962 2.372452-1.4397 3.205212-.43009.832761-.78197 1.656242-.78197 1.829957 0 .409043.8371.0946 2.23428-.83928.61285-.409633 1.30527-.744787 1.5387-.744787.52619 0-2.1564 3.535673-3.36881 4.440132l-.88417.659593.99534.01014c.54744.0056 1.51944-.345523 2.16-.780219s1.16466-.703693 1.16466-.597771c0 .479566-1.48795 2.586814-2.35229 3.331335-.5638.485644-.86019.977715-.72281 1.2.34441.557274.8912.466427 2.57219-.427364l1.51241-.804157-.65645.921895c-.36105.507042-1.08731 1.100365-1.61392 1.318494-.90796.37609-.94751.469287-.76482 1.802221.37982 2.771071-1.68662 6.12159-4.72514 7.661324-1.43484.727088-3.80044 2.874346-3.8064 3.455066-.002.148878 1.98082.220878 4.40522.16 4.22479-.106086 4.49623-.154148 6.53078-1.156352zm-13.44061-3.357569c1.21031-3.71877 1.30498-4.774212.75311-8.396766-.60059-3.942304-.61195-6.725586-.0385-9.44.24166-1.144.39076-2.131894.33134-2.195321-.22802-.243387-4.54255 3.623551-6.14026 5.503267-2.89567 3.406773-3.71806 7.091174-2.25687 10.111023.62017 1.28169 5.78268 7.066384 6.29869 7.057797.10691-.0018.58055-1.189779 1.05254-2.64zm-66.86081-18.076766c2.40467-2.902873 5.26344-5.842087 7.28634-7.491362 2.12813-1.735081 5.93866-3.674443 8.45151-4.30139 1.98189-.494475 2.13332-.585517 1.44-.86578-.42614-.172258-1.9988-.31576-3.4948-.318893-2.07729-.0044-3.07821.153041-4.23598.666095-2.28164 1.011081-4.68987 2.707401-7.49317 5.278075-1.38743 1.27229-3.3006 2.989492-4.2515 3.816003l-1.72891 1.502748.41119 1.857252c.22615 1.021489.4753 1.965252.55367 2.097252.37196.626567 1.17181.04137 3.06165-2.24zm7.45185-12.360989c1.76371-1.232214 3.71794-1.55813 9.1112-1.519518 2.904.02079 5.49143-.09751 5.74984-.262894.6453-.412986-3.24551-2.148521-5.70442-2.544517-3.43989-.553977-5.53719.221021-8.84542 3.268577-1.50826 1.389423-1.69524 2.025313-.3112 1.058352z"/></g></svg>